<?xml version="1.0" encoding="UTF-8"?>
<!DOCTYPE svg PUBLIC "-//W3C//DTD SVG 1.1//EN" "http://www.w3.org/Graphics/SVG/1.1/DTD/svg11.dtd">
<svg xmlns="http://www.w3.org/2000/svg" version="1.1" width="710px" height="163px" style="shape-rendering:geometricPrecision; text-rendering:geometricPrecision; image-rendering:optimizeQuality; fill-rule:evenodd; clip-rule:evenodd" xmlns:xlink="http://www.w3.org/1999/xlink">
<g><path style="opacity:1" fill="#c4c3c2" d="M 87.5,0.5 C 93.9975,0.552126 99.6642,2.55213 104.5,6.5C 101.762,5.96478 99.9282,6.96478 99,9.5C 99.1282,7.55496 98.9615,5.72163 98.5,4C 94.7459,2.69123 91.0793,1.52456 87.5,0.5 Z"/></g>
<g><path style="opacity:1" fill="#868583" d="M 68.5,1.5 C 70.6074,0.531782 72.9407,0.198448 75.5,0.5C 75.6277,6.4533 74.961,6.78663 73.5,1.5C 71.8333,1.5 70.1667,1.5 68.5,1.5 Z"/></g>
<g><path style="opacity:1" fill="#bab9b9" d="M 68.5,1.5 C 65.7298,2.31039 63.5631,3.97706 62,6.5C 61.586,6.04265 61.086,5.70931 60.5,5.5C 58.4664,6.55879 56.4664,7.55879 54.5,8.5C 54.9528,7.54163 55.6195,6.7083 56.5,6C 60.2393,3.74946 64.2393,2.24946 68.5,1.5 Z"/></g>
<g><path style="opacity:1" fill="#dedcdb" d="M 104.5,6.5 C 106.027,6.42702 107.027,7.09368 107.5,8.5C 105.973,8.57298 104.973,7.90632 104.5,6.5 Z"/></g>
<g><path style="opacity:1" fill="#29241d" d="M 75.5,0.5 C 79.5,0.5 83.5,0.5 87.5,0.5C 91.0793,1.52456 94.7459,2.69123 98.5,4C 98.9615,5.72163 99.1282,7.55496 99,9.5C 99.9282,6.96478 101.762,5.96478 104.5,6.5C 104.973,7.90632 105.973,8.57298 107.5,8.5C 108.167,8.5 108.5,8.83333 108.5,9.5C 109.801,10.8816 110.634,12.5483 111,14.5C 111.333,14.1667 111.667,13.8333 112,13.5C 113.039,14.7101 114.206,15.7101 115.5,16.5C 117.262,17.2623 118.262,18.5956 118.5,20.5C 118.67,21.8221 118.337,22.9887 117.5,24C 118.901,24.4101 120.234,24.9101 121.5,25.5C 122.674,26.5137 123.34,27.847 123.5,29.5C 123.357,31.2624 123.691,32.9291 124.5,34.5C 123.975,35.1924 123.308,35.6924 122.5,36C 124.119,36.2355 125.119,37.0689 125.5,38.5C 125.167,38.5 124.833,38.5 124.5,38.5C 124.167,38.5 123.833,38.5 123.5,38.5C 116.84,39.8313 110.173,41.1647 103.5,42.5C 103.918,41.7784 104.584,41.2784 105.5,41C 104.906,40.5357 104.239,40.369 103.5,40.5C 109.488,37.7276 115.822,35.7276 122.5,34.5C 121.833,31.8333 121.167,29.1667 120.5,26.5C 114.056,29.2213 107.723,32.2213 101.5,35.5C 101.5,34.8333 101.167,34.5 100.5,34.5C 105.481,30.3636 110.648,26.3636 116,22.5C 115.956,20.7215 115.289,19.0548 114,17.5C 112.951,16.4829 111.784,16.3162 110.5,17C 105.991,22.2095 101.158,27.0428 96,31.5C 95.0902,33.9449 95.9236,35.2782 98.5,35.5C 97.8333,36.1667 97.1667,36.8333 96.5,37.5C 91.0132,30.1694 83.6799,27.6694 74.5,30C 69.1844,32.1465 65.851,35.9799 64.5,41.5C 63.6618,41.8417 63.3284,42.5084 63.5,43.5C 62.8333,44.1667 62.1667,44.8333 61.5,45.5C 60.1525,43.5197 58.1525,42.353 55.5,42C 49.7565,41.1514 44.0898,39.9847 38.5,38.5C 37.5258,40.7427 37.1924,43.076 37.5,45.5C 36.8333,44.5 36.1667,43.5 35.5,42.5C 34.9435,39.1048 36.2768,36.9381 39.5,36C 37.8078,34.5993 37.1412,32.7659 37.5,30.5C 37.6596,28.847 38.3263,27.5137 39.5,26.5C 41.4144,25.8153 43.4144,25.3153 45.5,25C 44.5,24 43.5,23 42.5,22C 43.8228,21.1841 44.4894,20.0174 44.5,18.5C 46.5869,17.4154 47.9202,15.7488 48.5,13.5C 50.0174,13.5106 51.1841,14.1772 52,15.5C 52.4922,14.451 52.3256,13.451 51.5,12.5C 52.5244,11.1482 53.5244,9.81486 54.5,8.5C 56.4664,7.55879 58.4664,6.55879 60.5,5.5C 61.086,5.70931 61.586,6.04265 62,6.5C 63.5631,3.97706 65.7298,2.31039 68.5,1.5C 70.1667,1.5 71.8333,1.5 73.5,1.5C 74.961,6.78663 75.6277,6.4533 75.5,0.5 Z"/></g>
<g><path style="opacity:1" fill="#eeb01e" d="M 89.5,3.5 C 92.3626,3.92939 95.0293,4.92939 97.5,6.5C 94.5608,13.3815 91.8941,20.3815 89.5,27.5C 88.1667,27.5 86.8333,27.5 85.5,27.5C 86.6167,19.4663 87.9501,11.4663 89.5,3.5 Z"/></g>
<g><path style="opacity:1" fill="#eeaf1e" d="M 77.5,2.5 C 79.8333,2.5 82.1667,2.5 84.5,2.5C 84.4324,10.5136 84.099,18.5136 83.5,26.5C 81.8333,26.5 80.1667,26.5 78.5,26.5C 77.901,18.5136 77.5676,10.5136 77.5,2.5 Z"/></g>
<g><path style="opacity:1" fill="#a50631" d="M 227.5,0.5 C 227.5,0.166667 227.5,-0.166667 227.5,-0.5C 235.5,-0.5 243.5,-0.5 251.5,-0.5C 253.374,0.285178 255.374,0.951844 257.5,1.5C 257.5,2.16667 257.833,2.5 258.5,2.5C 259.041,9.77553 255.708,13.4422 248.5,13.5C 243.266,13.2869 238.266,12.1203 233.5,10C 230.869,7.01338 228.869,3.84671 227.5,0.5 Z"/></g>
<g><path style="opacity:1" fill="#ecb01e" d="M 101.5,8.5 C 104.267,9.05075 106.6,10.3841 108.5,12.5C 103.73,19.0542 98.7299,25.3875 93.5,31.5C 92.354,30.8551 91.354,30.0217 90.5,29C 94.052,22.0602 97.7186,15.2268 101.5,8.5 Z"/></g>
<g><path style="opacity:1" fill="#8f8f8e" d="M 54.5,8.5 C 53.5244,9.81486 52.5244,11.1482 51.5,12.5C 52.3256,13.451 52.4922,14.451 52,15.5C 51.1841,14.1772 50.0174,13.5106 48.5,13.5C 49.8851,11.1165 51.8851,9.44988 54.5,8.5 Z"/></g>
<g><path style="opacity:1" fill="#b6b4b3" d="M 108.5,9.5 C 109.239,9.36899 109.906,9.53566 110.5,10C 112.742,11.7703 114.408,13.9369 115.5,16.5C 114.206,15.7101 113.039,14.7101 112,13.5C 111.667,13.8333 111.333,14.1667 111,14.5C 110.634,12.5483 109.801,10.8816 108.5,9.5 Z"/></g>
<g><path style="opacity:1" fill="#efb11e" d="M 70.5,3.5 C 71.5862,3.61998 72.2528,4.28665 72.5,5.5C 74.7366,12.6819 76.0699,20.0152 76.5,27.5C 75.1667,27.5 73.8333,27.5 72.5,27.5C 70.6193,20.1898 67.9526,13.1898 64.5,6.5C 66.444,5.19927 68.444,4.19927 70.5,3.5 Z"/></g>
<g><path style="opacity:1" fill="#918f8d" d="M 48.5,13.5 C 47.9202,15.7488 46.5869,17.4154 44.5,18.5C 45.0798,16.2512 46.4131,14.5846 48.5,13.5 Z"/></g>
<g><path style="opacity:1" fill="#eaad1e" d="M 49.5,15.5 C 55.1314,20.6303 60.6314,25.9637 66,31.5C 66.8333,34.6667 65.6667,35.8333 62.5,35C 57,30.8333 51.5,26.6667 46,22.5C 45.3333,21.5 45.3333,20.5 46,19.5C 47.3756,18.2949 48.5423,16.9616 49.5,15.5 Z"/></g>
<g><path style="opacity:1" fill="#efb11e" d="M 100.5,34.5 C 99.8333,34.8333 99.1667,35.1667 98.5,35.5C 95.9236,35.2782 95.0902,33.9449 96,31.5C 101.158,27.0428 105.991,22.2095 110.5,17C 111.784,16.3162 112.951,16.4829 114,17.5C 115.289,19.0548 115.956,20.7215 116,22.5C 110.648,26.3636 105.481,30.3636 100.5,34.5 Z"/></g>
<g><path style="opacity:1" fill="#eaae1e" d="M 58.5,8.5 C 60.0174,8.51056 61.1841,9.17723 62,10.5C 64.9268,16.6896 68.0934,22.6896 71.5,28.5C 70.8333,29.8333 69.8333,30.8333 68.5,31.5C 63.2591,25.3485 58.2591,19.0151 53.5,12.5C 55.21,11.1128 56.8767,9.77943 58.5,8.5 Z"/></g>
<g><path style="opacity:1" fill="#8c8b89" d="M 118.5,20.5 C 120.25,21.6594 121.25,23.326 121.5,25.5C 120.234,24.9101 118.901,24.4101 117.5,24C 118.337,22.9887 118.67,21.8221 118.5,20.5 Z"/></g>
<g><path style="opacity:1" fill="#716f6d" d="M 44.5,18.5 C 44.4894,20.0174 43.8228,21.1841 42.5,22C 43.5,23 44.5,24 45.5,25C 43.4144,25.3153 41.4144,25.8153 39.5,26.5C 40.1695,23.1511 41.8361,20.4844 44.5,18.5 Z"/></g>
<g><path style="opacity:1" fill="#eaac1e" d="M 41.5,26.5 C 49.2098,29.5224 56.5431,33.3557 63.5,38C 62.9288,39.2051 62.2621,40.3717 61.5,41.5C 54.462,39.0985 47.462,36.5985 40.5,34C 39.9781,33.4387 39.6448,32.772 39.5,32C 40.3195,30.1997 40.9862,28.3664 41.5,26.5 Z"/></g>
<g><path style="opacity:1" fill="#ebad1e" d="M 103.5,40.5 C 100.936,42.2908 99.269,41.6241 98.5,38.5C 99.3398,37.265 100.34,36.265 101.5,35.5C 107.723,32.2213 114.056,29.2213 120.5,26.5C 121.167,29.1667 121.833,31.8333 122.5,34.5C 115.822,35.7276 109.488,37.7276 103.5,40.5 Z"/></g>
<g><path style="opacity:1" fill="#d9511b" d="M 96.5,37.5 C 97.038,39.1172 97.3713,40.7839 97.5,42.5C 97.5,43.5 97.5,44.5 97.5,45.5C 86.5,45.5 75.5,45.5 64.5,45.5C 64.5,44.1667 64.5,42.8333 64.5,41.5C 65.851,35.9799 69.1844,32.1465 74.5,30C 83.6799,27.6694 91.0132,30.1694 96.5,37.5 Z"/></g>
<g><path style="opacity:1" fill="#f5b51e" d="M 61.5,45.5 C 53.5,45.5 45.5,45.5 37.5,45.5C 37.1924,43.076 37.5258,40.7427 38.5,38.5C 44.0898,39.9847 49.7565,41.1514 55.5,42C 58.1525,42.353 60.1525,43.5197 61.5,45.5 Z"/></g>
<g><path style="opacity:1" fill="#bcbbbb" d="M 37.5,30.5 C 37.1412,32.7659 37.8078,34.5993 39.5,36C 36.2768,36.9381 34.9435,39.1048 35.5,42.5C 35.5,43.5 35.5,44.5 35.5,45.5C 30.8333,45.5 26.1667,45.5 21.5,45.5C 25.6344,44.5151 29.9677,44.1818 34.5,44.5C 34.2651,39.4541 35.2651,34.7874 37.5,30.5 Z"/></g>
<g><path style="opacity:1" fill="#313334" d="M 328.5,77.5 C 331.984,85.6144 337.651,87.781 345.5,84C 347.221,82.0562 348.554,79.8895 349.5,77.5C 350.495,66.3456 350.828,55.0123 350.5,43.5C 355.167,43.5 359.833,43.5 364.5,43.5C 364.667,56.8375 364.5,70.1708 364,83.5C 360.505,92.3438 354.005,97.5104 344.5,99C 330.319,101.328 320.152,96.161 314,83.5C 313.505,81.5273 313.338,79.5273 313.5,77.5C 313.5,66.1667 313.5,54.8333 313.5,43.5C 318.167,43.5 322.833,43.5 327.5,43.5C 327.172,55.0123 327.505,66.3456 328.5,77.5 Z"/></g>
<g><path style="opacity:1" fill="#9b9c9d" d="M 328.5,77.5 C 327.505,66.3456 327.172,55.0123 327.5,43.5C 322.833,43.5 318.167,43.5 313.5,43.5C 313.5,54.8333 313.5,66.1667 313.5,77.5C 312.505,66.012 312.172,54.3453 312.5,42.5C 317.833,42.5 323.167,42.5 328.5,42.5C 328.5,54.1667 328.5,65.8333 328.5,77.5 Z"/></g>
<g><path style="opacity:1" fill="#878889" d="M 364.5,43.5 C 359.833,43.5 355.167,43.5 350.5,43.5C 350.828,55.0123 350.495,66.3456 349.5,77.5C 349.5,65.8333 349.5,54.1667 349.5,42.5C 354.695,42.1795 359.695,42.5128 364.5,43.5 Z"/></g>
<g><path style="opacity:1" fill="#3d3f41" d="M 373.5,42.5 C 378.833,42.5 384.167,42.5 389.5,42.5C 389.5,61.1667 389.5,79.8333 389.5,98.5C 384.167,98.5 378.833,98.5 373.5,98.5C 373.5,79.8333 373.5,61.1667 373.5,42.5 Z"/></g>
<g><path style="opacity:1" fill="#333537" d="M 435.5,73.5 C 435.783,74.2891 436.283,74.9558 437,75.5C 437.5,64.8385 437.667,54.1719 437.5,43.5C 441.833,43.5 446.167,43.5 450.5,43.5C 450.5,61.5 450.5,79.5 450.5,97.5C 446.167,97.5 441.833,97.5 437.5,97.5C 429.098,88.0937 421.431,78.0937 414.5,67.5C 414.217,66.7109 413.717,66.0442 413,65.5C 412.5,76.495 412.333,87.495 412.5,98.5C 407.833,98.5 403.167,98.5 398.5,98.5C 398.5,79.8333 398.5,61.1667 398.5,42.5C 403.544,42.1725 408.544,42.5059 413.5,43.5C 421.269,53.2558 428.602,63.2558 435.5,73.5 Z"/></g>
<g><path style="opacity:1" fill="#c8c9c9" d="M 437.5,42.5 C 437.5,42.8333 437.5,43.1667 437.5,43.5C 437.667,54.1719 437.5,64.8385 437,75.5C 436.283,74.9558 435.783,74.2891 435.5,73.5C 436.167,63.1667 436.833,52.8333 437.5,42.5 Z"/></g>
<g><path style="opacity:1" fill="#878889" d="M 437.5,43.5 C 437.5,43.1667 437.5,42.8333 437.5,42.5C 442.167,42.5 446.833,42.5 451.5,42.5C 451.5,61.1667 451.5,79.8333 451.5,98.5C 446.637,98.8195 441.97,98.4861 437.5,97.5C 441.833,97.5 446.167,97.5 450.5,97.5C 450.5,79.5 450.5,61.5 450.5,43.5C 446.167,43.5 441.833,43.5 437.5,43.5 Z"/></g>
<g><path style="opacity:1" fill="#2b2e2f" d="M 504.5,43.5 C 504.5,47.1667 504.5,50.8333 504.5,54.5C 498.833,54.5 493.167,54.5 487.5,54.5C 487.5,68.8333 487.5,83.1667 487.5,97.5C 482.833,97.5 478.167,97.5 473.5,97.5C 473.5,83.1667 473.5,68.8333 473.5,54.5C 468.167,54.5 462.833,54.5 457.5,54.5C 457.5,50.8333 457.5,47.1667 457.5,43.5C 473.167,43.5 488.833,43.5 504.5,43.5 Z"/></g>
<g><path style="opacity:1" fill="#353738" d="M 514.5,96.5 C 511.92,97.1156 509.253,97.4489 506.5,97.5C 503.731,97.4714 501.397,96.8048 499.5,95.5C 506.372,78.0844 513.538,60.751 521,43.5C 526.667,42.1667 532.333,42.1667 538,43.5C 546.072,61.6377 553.572,79.9711 560.5,98.5C 555.156,98.666 549.823,98.4994 544.5,98C 542.972,95.0833 541.639,92.0833 540.5,89C 532.812,88.1685 525.145,88.3352 517.5,89.5C 516.688,91.9446 515.688,94.2779 514.5,96.5 Z M 535.5,75.5 C 531.167,76.8333 526.833,76.8333 522.5,75.5C 524.934,70.387 527.1,65.0537 529,59.5C 531.272,64.8221 533.439,70.1554 535.5,75.5 Z"/></g>
<g><path style="opacity:1" fill="#333537" d="M 565.5,42.5 C 570.214,42.1734 574.88,42.5067 579.5,43.5C 587.244,53.2375 594.578,63.2375 601.5,73.5C 601.783,74.2891 602.283,74.9558 603,75.5C 603.5,64.505 603.667,53.505 603.5,42.5C 608.167,42.5 612.833,42.5 617.5,42.5C 617.5,61.1667 617.5,79.8333 617.5,98.5C 612.456,98.8275 607.456,98.4941 602.5,97.5C 594.731,87.7442 587.398,77.7442 580.5,67.5C 580.217,66.7109 579.717,66.0442 579,65.5C 578.5,76.1615 578.333,86.8281 578.5,97.5C 574.167,97.5 569.833,97.5 565.5,97.5C 565.5,79.1667 565.5,60.8333 565.5,42.5 Z"/></g>
<g><path style="opacity:1" fill="#979899" d="M 603.5,42.5 C 603.667,53.505 603.5,64.505 603,75.5C 602.283,74.9558 601.783,74.2891 601.5,73.5C 602.167,63.1667 602.833,52.8333 603.5,42.5 Z"/></g>
<g><path style="opacity:1" fill="#353739" d="M 644.5,42.5 C 650.167,42.5 655.833,42.5 661.5,42.5C 668.833,61.1667 676.167,79.8333 683.5,98.5C 678.156,98.666 672.823,98.4994 667.5,98C 666.167,95 664.833,92 663.5,89C 655.841,88.5003 648.174,88.3336 640.5,88.5C 639.801,91.5729 638.801,94.5729 637.5,97.5C 632.208,98.4948 626.875,98.8282 621.5,98.5C 629.16,79.844 636.827,61.1773 644.5,42.5 Z M 658.5,74.5 C 654.627,76.4302 650.294,77.0969 645.5,76.5C 647.824,71.1839 650.157,65.8506 652.5,60.5C 654.51,65.1839 656.51,69.8505 658.5,74.5 Z"/></g>
<g><path style="opacity:1" fill="#e2e0dd" d="M 126.5,41.5 C 127.404,42.209 127.737,43.209 127.5,44.5C 132.032,44.1818 136.366,44.5151 140.5,45.5C 135.833,45.5 131.167,45.5 126.5,45.5C 126.5,44.1667 126.5,42.8333 126.5,41.5 Z"/></g>
<g><path style="opacity:1" fill="#983f1a" d="M 64.5,41.5 C 64.5,42.8333 64.5,44.1667 64.5,45.5C 75.5,45.5 86.5,45.5 97.5,45.5C 97.5,44.5 97.5,43.5 97.5,42.5C 98.4345,43.5676 98.7678,44.901 98.5,46.5C 86.8333,46.5 75.1667,46.5 63.5,46.5C 63.5,45.5 63.5,44.5 63.5,43.5C 63.3284,42.5084 63.6618,41.8417 64.5,41.5 Z"/></g>
<g><path style="opacity:1" fill="#6a6a68" d="M 123.5,29.5 C 125.692,33.0981 126.692,37.0981 126.5,41.5C 126.5,42.8333 126.5,44.1667 126.5,45.5C 131.167,45.5 135.833,45.5 140.5,45.5C 140.5,45.8333 140.5,46.1667 140.5,46.5C 139.5,46.5 138.5,46.5 137.5,46.5C 133.5,46.5 129.5,46.5 125.5,46.5C 125.5,43.8333 125.5,41.1667 125.5,38.5C 125.119,37.0689 124.119,36.2355 122.5,36C 123.308,35.6924 123.975,35.1924 124.5,34.5C 123.691,32.9291 123.357,31.2624 123.5,29.5 Z"/></g>
<g><path style="opacity:1" fill="#940628" d="M 227.5,0.5 C 228.869,3.84671 230.869,7.01338 233.5,10C 238.266,12.1203 243.266,13.2869 248.5,13.5C 255.708,13.4422 259.041,9.77553 258.5,2.5C 261.296,7.04856 260.629,11.2152 256.5,15C 249.5,15.6667 242.5,15.6667 235.5,15C 230.199,12.8668 226.866,9.03346 225.5,3.5C 221.888,4.63945 218.554,6.30612 215.5,8.5C 218.629,10.0216 221.963,10.855 225.5,11C 228.726,12.1058 231.393,13.9391 233.5,16.5C 231.722,16.5693 229.889,16.9026 228,17.5C 225.575,15.2469 222.742,14.4136 219.5,15C 222.588,15.5792 225.255,16.9125 227.5,19C 227.167,19.1667 226.833,19.3333 226.5,19.5C 223.239,18.0179 219.905,17.1846 216.5,17C 216.833,17.3333 217.167,17.6667 217.5,18C 214.764,19.3622 212.431,21.1956 210.5,23.5C 214.259,26.817 215.259,30.817 213.5,35.5C 212.416,34.3349 211.583,33.0016 211,31.5C 210.695,33.5568 210.695,35.5568 211,37.5C 209.497,37.8346 208.164,37.8346 207,37.5C 206.751,34.8232 205.751,32.4899 204,30.5C 198.615,37.0957 195.115,44.2624 193.5,52C 191.5,52.3333 189.5,52.6667 187.5,53C 189.932,54.0875 189.598,54.5875 186.5,54.5C 186.5,56.1667 186.5,57.8333 186.5,59.5C 190.58,59.5828 194.413,60.5828 198,62.5C 198.561,66.5384 198.895,70.5384 199,74.5C 198.311,73.6433 197.478,72.9767 196.5,72.5C 193.983,75.1579 191.483,75.8246 189,74.5C 188.009,75.4296 187.509,76.5962 187.5,78C 188.471,83.1015 190.138,87.9348 192.5,92.5C 193.313,97.461 192.147,101.794 189,105.5C 188.915,103.915 188.749,102.582 188.5,101.5C 187.719,102.737 186.719,103.737 185.5,104.5C 184.248,102.999 183.248,101.332 182.5,99.5C 185.666,93.1562 183.832,88.8228 177,86.5C 176.667,85.5 176.333,84.5 176,83.5C 176.055,81.0853 176.388,78.752 177,76.5C 175.736,74.393 173.903,73.393 171.5,73.5C 170.163,38.361 185.83,14.5277 218.5,2C 221.432,1.04673 224.432,0.546728 227.5,0.5 Z"/></g>
<g><path style="opacity:1" fill="#ab123a" d="M 257.5,1.5 C 289.407,11.7652 306.407,33.7652 308.5,67.5C 307.929,73.2115 307.096,78.8782 306,84.5C 305.326,85.5784 304.326,86.2451 303,86.5C 298.874,85.6707 294.707,85.3374 290.5,85.5C 292.126,82.7543 292.793,79.7543 292.5,76.5C 290.5,76.5 288.5,76.5 286.5,76.5C 286.986,80.509 285.32,82.3423 281.5,82C 286.641,79.2426 286.641,77.9092 281.5,78C 280.663,76.9887 280.33,75.8221 280.5,74.5C 286.401,75.2572 291.734,73.9239 296.5,70.5C 295.667,70.1667 294.833,69.8333 294,69.5C 289.952,71.1263 285.785,71.6263 281.5,71C 284.544,70.6411 284.878,69.9745 282.5,69C 286.285,68.6272 289.785,67.4605 293,65.5C 293.605,67.4812 294.605,67.8146 296,66.5C 296.667,63.1667 296.667,59.8333 296,56.5C 294.575,55.7877 293.075,55.621 291.5,56C 293.019,54.6487 294.352,53.1487 295.5,51.5C 292.833,50.8333 290.167,50.1667 287.5,49.5C 286.846,47.8849 286.346,46.2182 286,44.5C 285.612,48.2192 284.945,51.8859 284,55.5C 284,52.1667 284,48.8333 284,45.5C 282.908,48.0444 282.241,50.7111 282,53.5C 281.821,50.4465 281.321,47.4465 280.5,44.5C 279.702,46.0777 279.202,47.7444 279,49.5C 278.667,48.1667 278.333,46.8333 278,45.5C 277.667,45.8333 277.333,46.1667 277,46.5C 276.626,45.5838 276.126,44.7504 275.5,44C 281.597,43.7345 287.597,42.9011 293.5,41.5C 294.314,39.0485 293.814,36.7151 292,34.5C 290.064,37.8128 287.23,38.9795 283.5,38C 281.753,34.6704 280.42,31.1704 279.5,27.5C 278.604,28.5063 277.938,28.5063 277.5,27.5C 278.025,26.8076 278.692,26.3076 279.5,26C 274.399,24.9237 269.899,26.0904 266,29.5C 265.833,29.1667 265.667,28.8333 265.5,28.5C 266.981,27.5197 268.315,26.353 269.5,25C 260.363,17.308 254.697,19.1413 252.5,30.5C 229.959,24.8549 213.792,32.5216 204,53.5C 200.108,65.8706 201.608,77.5373 208.5,88.5C 203.165,89.4949 198.831,92.1616 195.5,96.5C 194.141,95.3757 193.141,94.0423 192.5,92.5C 190.138,87.9348 188.471,83.1015 187.5,78C 187.509,76.5962 188.009,75.4296 189,74.5C 191.483,75.8246 193.983,75.1579 196.5,72.5C 197.478,72.9767 198.311,73.6433 199,74.5C 198.895,70.5384 198.561,66.5384 198,62.5C 194.413,60.5828 190.58,59.5828 186.5,59.5C 186.5,57.8333 186.5,56.1667 186.5,54.5C 189.598,54.5875 189.932,54.0875 187.5,53C 189.5,52.6667 191.5,52.3333 193.5,52C 195.115,44.2624 198.615,37.0957 204,30.5C 205.751,32.4899 206.751,34.8232 207,37.5C 208.164,37.8346 209.497,37.8346 211,37.5C 210.695,35.5568 210.695,33.5568 211,31.5C 211.583,33.0016 212.416,34.3349 213.5,35.5C 215.259,30.817 214.259,26.817 210.5,23.5C 212.431,21.1956 214.764,19.3622 217.5,18C 217.167,17.6667 216.833,17.3333 216.5,17C 219.905,17.1846 223.239,18.0179 226.5,19.5C 226.833,19.3333 227.167,19.1667 227.5,19C 225.255,16.9125 222.588,15.5792 219.5,15C 222.742,14.4136 225.575,15.2469 228,17.5C 229.889,16.9026 231.722,16.5693 233.5,16.5C 231.393,13.9391 228.726,12.1058 225.5,11C 221.963,10.855 218.629,10.0216 215.5,8.5C 218.554,6.30612 221.888,4.63945 225.5,3.5C 226.866,9.03346 230.199,12.8668 235.5,15C 242.5,15.6667 249.5,15.6667 256.5,15C 260.629,11.2152 261.296,7.04856 258.5,2.5C 257.833,2.5 257.5,2.16667 257.5,1.5 Z"/></g>
<g><path style="opacity:1" fill="#7e7f80" d="M 504.5,43.5 C 488.833,43.5 473.167,43.5 457.5,43.5C 457.5,47.1667 457.5,50.8333 457.5,54.5C 462.833,54.5 468.167,54.5 473.5,54.5C 473.5,68.8333 473.5,83.1667 473.5,97.5C 478.167,97.5 482.833,97.5 487.5,97.5C 487.5,97.8333 487.5,98.1667 487.5,98.5C 482.5,98.5 477.5,98.5 472.5,98.5C 472.5,84.1667 472.5,69.8333 472.5,55.5C 467.167,55.5 461.833,55.5 456.5,55.5C 456.5,51.1667 456.5,46.8333 456.5,42.5C 472.675,42.1703 488.675,42.5036 504.5,43.5 Z"/></g>
<g><path style="opacity:1" fill="#bdbebf" d="M 504.5,54.5 C 499.36,55.4881 494.026,55.8214 488.5,55.5C 488.829,70.0097 488.496,84.3431 487.5,98.5C 487.5,98.1667 487.5,97.8333 487.5,97.5C 487.5,83.1667 487.5,68.8333 487.5,54.5C 493.167,54.5 498.833,54.5 504.5,54.5 Z"/></g>
<g><path style="opacity:1" fill="#c00f48" d="M 290.5,85.5 C 283.225,86.4032 276.225,88.4032 269.5,91.5C 269.167,91.1667 268.833,90.8333 268.5,90.5C 281.898,70.6526 279.898,52.4859 262.5,36C 259.3,33.9005 255.967,32.0672 252.5,30.5C 254.697,19.1413 260.363,17.308 269.5,25C 268.315,26.353 266.981,27.5197 265.5,28.5C 265.667,28.8333 265.833,29.1667 266,29.5C 269.899,26.0904 274.399,24.9237 279.5,26C 278.692,26.3076 278.025,26.8076 277.5,27.5C 277.938,28.5063 278.604,28.5063 279.5,27.5C 280.42,31.1704 281.753,34.6704 283.5,38C 287.23,38.9795 290.064,37.8128 292,34.5C 293.814,36.7151 294.314,39.0485 293.5,41.5C 287.597,42.9011 281.597,43.7345 275.5,44C 276.126,44.7504 276.626,45.5838 277,46.5C 277.333,46.1667 277.667,45.8333 278,45.5C 278.333,46.8333 278.667,48.1667 279,49.5C 279.202,47.7444 279.702,46.0777 280.5,44.5C 281.321,47.4465 281.821,50.4465 282,53.5C 282.241,50.7111 282.908,48.0444 284,45.5C 284,48.8333 284,52.1667 284,55.5C 284.945,51.8859 285.612,48.2192 286,44.5C 286.346,46.2182 286.846,47.8849 287.5,49.5C 290.167,50.1667 292.833,50.8333 295.5,51.5C 294.352,53.1487 293.019,54.6487 291.5,56C 293.075,55.621 294.575,55.7877 296,56.5C 296.667,59.8333 296.667,63.1667 296,66.5C 294.605,67.8146 293.605,67.4812 293,65.5C 289.785,67.4605 286.285,68.6272 282.5,69C 284.878,69.9745 284.544,70.6411 281.5,71C 285.785,71.6263 289.952,71.1263 294,69.5C 294.833,69.8333 295.667,70.1667 296.5,70.5C 291.734,73.9239 286.401,75.2572 280.5,74.5C 280.33,75.8221 280.663,76.9887 281.5,78C 286.641,77.9092 286.641,79.2426 281.5,82C 285.32,82.3423 286.986,80.509 286.5,76.5C 288.5,76.5 290.5,76.5 292.5,76.5C 292.793,79.7543 292.126,82.7543 290.5,85.5 Z"/></g>
<g><path style="opacity:1" fill="#969798" d="M 414.5,67.5 C 413.833,77.8333 413.167,88.1667 412.5,98.5C 412.333,87.495 412.5,76.495 413,65.5C 413.717,66.0442 414.217,66.7109 414.5,67.5 Z"/></g>
<g><path style="opacity:1" fill="#9fa0a1" d="M 565.5,42.5 C 565.5,60.8333 565.5,79.1667 565.5,97.5C 569.833,97.5 574.167,97.5 578.5,97.5C 578.333,86.8281 578.5,76.1615 579,65.5C 579.717,66.0442 580.217,66.7109 580.5,67.5C 579.506,77.6532 579.172,87.9865 579.5,98.5C 574.5,98.5 569.5,98.5 564.5,98.5C 564.17,79.6592 564.503,60.9925 565.5,42.5 Z"/></g>
<g><path style="opacity:1" fill="#c0c1c2" d="M 522.5,75.5 C 526.833,76.8333 531.167,76.8333 535.5,75.5C 536.043,75.56 536.376,75.8933 536.5,76.5C 531.5,77.8333 526.5,77.8333 521.5,76.5C 521.624,75.8933 521.957,75.56 522.5,75.5 Z"/></g>
<g><path style="opacity:1" fill="#c9caca" d="M 658.5,74.5 C 659.404,75.209 659.737,76.209 659.5,77.5C 654.637,77.8195 649.97,77.4861 645.5,76.5C 650.294,77.0969 654.627,76.4302 658.5,74.5 Z"/></g>
<g><path style="opacity:1" fill="#8d161e" d="M 285.5,90.5 C 284.791,91.404 283.791,91.7373 282.5,91.5C 283.207,94.7861 283.54,98.1194 283.5,101.5C 281.901,101.232 280.568,101.566 279.5,102.5C 265.104,107.571 250.437,108.571 235.5,105.5C 234.833,104.833 234.167,104.167 233.5,103.5C 239.207,102.994 244.874,102.161 250.5,101C 262.243,97.5842 273.909,94.0842 285.5,90.5 Z"/></g>
<g><path style="opacity:1" fill="#e22267" d="M 303.5,90.5 C 314.486,92.1544 323.486,97.1544 330.5,105.5C 332.519,109.539 334.519,113.539 336.5,117.5C 336.5,118.833 336.5,120.167 336.5,121.5C 336.5,121.833 336.5,122.167 336.5,122.5C 332.057,114.058 325.39,108.058 316.5,104.5C 313.45,102.899 310.116,101.899 306.5,101.5C 304.532,97.932 303.532,94.2653 303.5,90.5 Z"/></g>
<g><path style="opacity:1" fill="#747677" d="M 499.5,95.5 C 501.397,96.8048 503.731,97.4714 506.5,97.5C 509.253,97.4489 511.92,97.1156 514.5,96.5C 512.085,97.8142 509.252,98.4809 506,98.5C 503.167,98.3333 500.333,98.1667 497.5,98C 498.066,97.0053 498.733,96.172 499.5,95.5 Z"/></g>
<g><path style="opacity:1" fill="#b40f3d" d="M 303.5,90.5 C 303.532,94.2653 304.532,97.932 306.5,101.5C 304.105,100.637 301.771,100.637 299.5,101.5C 300.246,102.736 300.579,104.07 300.5,105.5C 295.126,105.887 289.793,106.554 284.5,107.5C 284.368,104.203 282.702,102.537 279.5,102.5C 280.568,101.566 281.901,101.232 283.5,101.5C 283.54,98.1194 283.207,94.7861 282.5,91.5C 283.791,91.7373 284.791,91.404 285.5,90.5C 291.401,89.1943 297.401,89.1943 303.5,90.5 Z"/></g>
<g><path style="opacity:1" fill="#211c19" d="M 100.5,34.5 C 101.167,34.5 101.5,34.8333 101.5,35.5C 100.34,36.265 99.3398,37.265 98.5,38.5C 99.269,41.6241 100.936,42.2908 103.5,40.5C 104.239,40.369 104.906,40.5357 105.5,41C 104.584,41.2784 103.918,41.7784 103.5,42.5C 102.5,42.5 101.5,42.5 100.5,42.5C 100.5,43.5 100.5,44.5 100.5,45.5C 108.316,46.4924 116.316,46.8257 124.5,46.5C 124.5,43.8333 124.5,41.1667 124.5,38.5C 124.833,38.5 125.167,38.5 125.5,38.5C 125.5,41.1667 125.5,43.8333 125.5,46.5C 129.5,46.5 133.5,46.5 137.5,46.5C 137.5,46.8333 137.5,47.1667 137.5,47.5C 119.164,47.3334 100.83,47.5001 82.5,48C 81.1692,66.2644 81.1692,84.4311 82.5,102.5C 100.5,102.5 118.5,102.5 136.5,102.5C 99.1667,103.167 61.8333,103.833 24.5,104.5C 23.5036,120.325 23.1703,136.325 23.5,152.5C 22.8333,117.5 22.1667,82.5 21.5,47.5C 21.5,46.8333 21.5,46.1667 21.5,45.5C 26.1667,45.5 30.8333,45.5 35.5,45.5C 35.5,44.5 35.5,43.5 35.5,42.5C 36.1667,43.5 36.8333,44.5 37.5,45.5C 45.5,45.5 53.5,45.5 61.5,45.5C 62.1667,44.8333 62.8333,44.1667 63.5,43.5C 63.5,44.5 63.5,45.5 63.5,46.5C 75.1667,46.5 86.8333,46.5 98.5,46.5C 98.7678,44.901 98.4345,43.5676 97.5,42.5C 97.3713,40.7839 97.038,39.1172 96.5,37.5C 97.1667,36.8333 97.8333,36.1667 98.5,35.5C 99.1667,35.1667 99.8333,34.8333 100.5,34.5 Z"/></g>
<g><path style="opacity:1" fill="#71571b" d="M 123.5,38.5 C 123.833,38.5 124.167,38.5 124.5,38.5C 124.5,41.1667 124.5,43.8333 124.5,46.5C 116.316,46.8257 108.316,46.4924 100.5,45.5C 108.167,45.5 115.833,45.5 123.5,45.5C 123.5,43.1667 123.5,40.8333 123.5,38.5 Z"/></g>
<g><path style="opacity:1" fill="#f4b51e" d="M 123.5,38.5 C 123.5,40.8333 123.5,43.1667 123.5,45.5C 115.833,45.5 108.167,45.5 100.5,45.5C 100.5,44.5 100.5,43.5 100.5,42.5C 101.5,42.5 102.5,42.5 103.5,42.5C 110.173,41.1647 116.84,39.8313 123.5,38.5 Z"/></g>
<g><path style="opacity:1" fill="#951c2d" d="M 171.5,73.5 C 173.903,73.393 175.736,74.393 177,76.5C 176.388,78.752 176.055,81.0853 176,83.5C 176.333,84.5 176.667,85.5 177,86.5C 183.832,88.8228 185.666,93.1562 182.5,99.5C 183.248,101.332 184.248,102.999 185.5,104.5C 186.719,103.737 187.719,102.737 188.5,101.5C 188.749,102.582 188.915,103.915 189,105.5C 192.147,101.794 193.313,97.461 192.5,92.5C 193.141,94.0423 194.141,95.3757 195.5,96.5C 198.831,92.1616 203.165,89.4949 208.5,88.5C 209.5,88.8333 210.167,89.5 210.5,90.5C 202.259,91.3022 197.259,95.8022 195.5,104C 195.499,107.301 195.666,110.801 196,114.5C 200.5,117.667 204.333,121.5 207.5,126C 212.527,127.017 217.194,128.851 221.5,131.5C 225.013,131.317 228.679,131.151 232.5,131C 233.38,132.356 233.714,133.856 233.5,135.5C 197.167,130.5 176.5,109.833 171.5,73.5 Z"/></g>
<g><path style="opacity:1" fill="#ad0e3a" d="M 210.5,90.5 C 216.841,97.1707 224.508,101.504 233.5,103.5C 234.167,104.167 234.833,104.833 235.5,105.5C 234.833,105.5 234.5,105.833 234.5,106.5C 234.762,107.978 234.429,109.311 233.5,110.5C 230.111,108.849 227.445,109.683 225.5,113C 223.487,114.257 221.321,115.091 219,115.5C 214.727,113.942 210.561,112.275 206.5,110.5C 206.38,104.903 208.713,100.736 213.5,98C 211.796,95.7625 210.796,93.2625 210.5,90.5 Z"/></g>
<g><path style="opacity:1" fill="#2a2721" d="M 137.5,47.5 C 137.5,47.1667 137.5,46.8333 137.5,46.5C 138.5,46.5 139.5,46.5 140.5,46.5C 140.5,82.5 140.5,118.5 140.5,154.5C 138.863,156.475 137.196,158.475 135.5,160.5C 100.337,161.498 65.0039,161.832 29.5,161.5C 28.4863,160.326 27.153,159.66 25.5,159.5C 24.5,159.167 23.8333,158.5 23.5,157.5C 23.3404,155.847 22.6737,154.514 21.5,153.5C 21.5,118.167 21.5,82.8333 21.5,47.5C 22.1667,82.5 22.8333,117.5 23.5,152.5C 24.5716,155.901 26.9049,157.901 30.5,158.5C 64.1667,159.833 97.8333,159.833 131.5,158.5C 134.522,158.572 136.688,157.238 138,154.5C 138.5,137.837 138.667,121.17 138.5,104.5C 100.5,104.5 62.5,104.5 24.5,104.5C 61.8333,103.833 99.1667,103.167 136.5,102.5C 138.487,84.8644 139.153,66.8644 138.5,48.5C 138.5,47.8333 138.167,47.5 137.5,47.5 Z"/></g>
<g><path style="opacity:1" fill="#476474" d="M 137.5,48.5 C 137.833,48.5 138.167,48.5 138.5,48.5C 139.153,66.8644 138.487,84.8644 136.5,102.5C 118.5,102.5 100.5,102.5 82.5,102.5C 82.5,102.167 82.5,101.833 82.5,101.5C 82.8333,101.5 83.1667,101.5 83.5,101.5C 101.5,101.5 119.5,101.5 137.5,101.5C 137.5,84.1667 137.5,66.8333 137.5,49.5C 137.5,49.1667 137.5,48.8333 137.5,48.5 Z"/></g>
<g><path style="opacity:1" fill="#9a4b1b" d="M 24.5,48.5 C 24.5,48.8333 24.5,49.1667 24.5,49.5C 24.5,66.8333 24.5,84.1667 24.5,101.5C 42.5,101.5 60.5,101.5 78.5,101.5C 79.4967,84.0079 79.8301,66.3412 79.5,48.5C 80.4968,66.3256 80.8301,84.3256 80.5,102.5C 61.5,102.5 42.5,102.5 23.5,102.5C 23.1699,84.3256 23.5032,66.3256 24.5,48.5 Z"/></g>
<g><path style="opacity:1" fill="#dbad3d" d="M 137.5,49.5 C 137.5,66.8333 137.5,84.1667 137.5,101.5C 119.5,101.5 101.5,101.5 83.5,101.5C 83.5,100.833 83.8333,100.5 84.5,100.5C 84.8333,100.5 85.1667,100.5 85.5,100.5C 102.5,100.5 119.5,100.5 136.5,100.5C 136.5,83.8333 136.5,67.1667 136.5,50.5C 136.5,49.8333 136.833,49.5 137.5,49.5 Z"/></g>
<g><path style="opacity:1" fill="#fcab1e" d="M 24.5,49.5 C 25.1667,49.5 25.5,49.8333 25.5,50.5C 25.5,67.1667 25.5,83.8333 25.5,100.5C 42.8333,100.5 60.1667,100.5 77.5,100.5C 78.1667,100.5 78.5,100.833 78.5,101.5C 60.5,101.5 42.5,101.5 24.5,101.5C 24.5,84.1667 24.5,66.8333 24.5,49.5 Z"/></g>
<g><path style="opacity:1" fill="#386e9e" d="M 135.5,50.5 C 135.833,50.5 136.167,50.5 136.5,50.5C 136.5,67.1667 136.5,83.8333 136.5,100.5C 119.5,100.5 102.5,100.5 85.5,100.5C 85.5,100.167 85.5,99.8333 85.5,99.5C 101.833,99.5 118.167,99.5 134.5,99.5C 135.496,83.3419 135.83,67.0085 135.5,50.5 Z"/></g>
<g><path style="opacity:1" fill="#a7995b" d="M 137.5,48.5 C 137.5,48.8333 137.5,49.1667 137.5,49.5C 136.833,49.5 136.5,49.8333 136.5,50.5C 136.167,50.5 135.833,50.5 135.5,50.5C 118.5,50.5 101.5,50.5 84.5,50.5C 84.5,67.1667 84.5,83.8333 84.5,100.5C 83.8333,100.5 83.5,100.833 83.5,101.5C 83.1667,101.5 82.8333,101.5 82.5,101.5C 82.1746,83.9231 82.5079,66.4231 83.5,49C 101.497,48.5001 119.497,48.3334 137.5,48.5 Z"/></g>
<g><path style="opacity:1" fill="#d8521b" d="M 25.5,50.5 C 42.8333,50.5 60.1667,50.5 77.5,50.5C 77.5,67.1667 77.5,83.8333 77.5,100.5C 60.1667,100.5 42.8333,100.5 25.5,100.5C 25.5,83.8333 25.5,67.1667 25.5,50.5 Z"/></g>
<g><path style="opacity:1" fill="#51351b" d="M 45.5,67.5 C 41.9482,65.7956 38.7815,63.4623 36,60.5C 35.8333,60.8333 35.6667,61.1667 35.5,61.5C 41.4205,67.3293 43.9205,74.3293 43,82.5C 41.957,86.2753 40.957,89.942 40,93.5C 46.6778,89.7201 53.8444,88.5534 61.5,90C 64.0254,90.4238 66.0254,91.5905 67.5,93.5C 58.2333,89.4065 49.0666,89.7398 40,94.5C 39.228,94.3552 38.5613,94.0219 38,93.5C 39.8378,88.9349 41.3378,84.1016 42.5,79C 40.5295,71.2239 36.8629,64.3906 31.5,58.5C 33.1875,57.432 34.8541,57.5986 36.5,59C 39.9565,61.3868 42.9565,64.2202 45.5,67.5 Z"/></g>
<g><path style="opacity:1" fill="#efb21e" d="M 45.5,67.5 C 46.5846,69.5869 48.2512,70.9202 50.5,71.5C 50.046,74.1398 48.8793,76.4732 47,78.5C 47.459,87.5545 51.7923,89.8879 60,85.5C 61.6875,82.3759 61.8541,79.2092 60.5,76C 58.3763,74.4178 56.2096,74.2512 54,75.5C 54.0187,73.8925 54.1854,72.2259 54.5,70.5C 59.253,71.8611 63.9197,72.5278 68.5,72.5C 64.4336,79.4492 64.7669,86.2825 69.5,93C 68.9056,93.4643 68.2389,93.631 67.5,93.5C 66.0254,91.5905 64.0254,90.4238 61.5,90C 53.8444,88.5534 46.6778,89.7201 40,93.5C 40.957,89.942 41.957,86.2753 43,82.5C 43.9205,74.3293 41.4205,67.3293 35.5,61.5C 35.6667,61.1667 35.8333,60.8333 36,60.5C 38.7815,63.4623 41.9482,65.7956 45.5,67.5 Z"/></g>
<g><path style="opacity:1" fill="#51351b" d="M 67.5,93.5 C 68.2389,93.631 68.9056,93.4643 69.5,93C 64.7669,86.2825 64.4336,79.4492 68.5,72.5C 63.9197,72.5278 59.253,71.8611 54.5,70.5C 54.1854,72.2259 54.0187,73.8925 54,75.5C 56.2096,74.2512 58.3763,74.4178 60.5,76C 61.8541,79.2092 61.6875,82.3759 60,85.5C 51.7923,89.8879 47.459,87.5545 47,78.5C 48.8793,76.4732 50.046,74.1398 50.5,71.5C 51.4232,72.3029 52.4232,72.4696 53.5,72C 52.1485,69.875 52.8152,68.7083 55.5,68.5C 60.3107,70.3336 65.144,71.0002 70,70.5C 68.3842,73.8537 67.2175,77.5203 66.5,81.5C 67.8378,85.8458 69.1712,90.1791 70.5,94.5C 69.209,94.7373 68.209,94.404 67.5,93.5 Z"/></g>
<g><path style="opacity:1" fill="#d9511b" d="M 50.5,75.5 C 51.4822,76.1408 52.4822,76.8075 53.5,77.5C 55.6112,74.9557 57.7779,74.9557 60,77.5C 61.0854,85.0563 57.9187,87.5563 50.5,85C 46.6491,81.8557 46.6491,78.689 50.5,75.5 Z"/></g>
<g><path style="opacity:1" fill="#462f1a" d="M 45.5,67.5 C 47.7488,68.0798 49.4154,69.4131 50.5,71.5C 48.2512,70.9202 46.5846,69.5869 45.5,67.5 Z"/></g>
<g><path style="opacity:1" fill="#0e5fb7" d="M 135.5,50.5 C 135.83,67.0085 135.496,83.3419 134.5,99.5C 134.5,83.5 134.5,67.5 134.5,51.5C 118.167,51.5 101.833,51.5 85.5,51.5C 85.5,67.5 85.5,83.5 85.5,99.5C 85.5,99.8333 85.5,100.167 85.5,100.5C 85.1667,100.5 84.8333,100.5 84.5,100.5C 84.5,83.8333 84.5,67.1667 84.5,50.5C 101.5,50.5 118.5,50.5 135.5,50.5 Z"/></g>
<g><path style="opacity:1" fill="#1a64ae" d="M 134.5,99.5 C 118.167,99.5 101.833,99.5 85.5,99.5C 85.5,83.5 85.5,67.5 85.5,51.5C 101.833,51.5 118.167,51.5 134.5,51.5C 134.5,67.5 134.5,83.5 134.5,99.5 Z"/></g>
<g><path style="opacity:1" fill="#37393c" d="M 121.5,87.5 C 123.104,88.287 123.771,89.6203 123.5,91.5C 121.067,91.7271 119.401,90.7271 118.5,88.5C 119.496,88.4142 120.329,88.7476 121,89.5C 121.464,88.9056 121.631,88.2389 121.5,87.5 Z"/></g>
<g><path style="opacity:1" fill="#333638" d="M 103.5,79.5 C 102.328,82.8309 101.494,86.1642 101,89.5C 103.629,87.1118 106.462,85.1118 109.5,83.5C 107.098,86.2155 104.432,88.7155 101.5,91C 100.552,91.4828 99.552,91.6495 98.5,91.5C 98.3433,90.1266 98.51,88.7932 99,87.5C 100.232,84.5883 101.732,81.9216 103.5,79.5 Z"/></g>
<g><path style="opacity:1" fill="#242d32" d="M 126.5,72.5 C 123.901,74.4793 121.235,76.4793 118.5,78.5C 120.105,81.3138 121.105,84.3138 121.5,87.5C 119.728,84.8395 118.395,81.8395 117.5,78.5C 119.622,75.2664 122.622,73.2664 126.5,72.5 Z"/></g>
<g><path style="opacity:1" fill="#2d3134" d="M 98.5,74.5 C 100.258,74.8769 101.925,75.5435 103.5,76.5C 104.776,77.6136 104.776,78.6136 103.5,79.5C 102.103,77.6207 100.437,75.9541 98.5,74.5 Z"/></g>
<g><path style="opacity:1" fill="#9ea0a5" d="M 126.5,72.5 C 122.622,73.2664 119.622,75.2664 117.5,78.5C 118.395,81.8395 119.728,84.8395 121.5,87.5C 121.631,88.2389 121.464,88.9056 121,89.5C 120.329,88.7476 119.496,88.4142 118.5,88.5C 117.415,86.4131 115.749,85.0798 113.5,84.5C 112.332,81.5311 110.999,81.1978 109.5,83.5C 106.462,85.1118 103.629,87.1118 101,89.5C 101.494,86.1642 102.328,82.8309 103.5,79.5C 104.776,78.6136 104.776,77.6136 103.5,76.5C 101.925,75.5435 100.258,74.8769 98.5,74.5C 96.326,74.2503 94.6594,73.2503 93.5,71.5C 97.97,70.5139 102.637,70.1805 107.5,70.5C 108.044,66.3268 109.21,62.3268 111,58.5C 112.181,62.8911 113.514,67.2245 115,71.5C 119.079,70.3705 123.245,70.2039 127.5,71C 126.944,71.3826 126.611,71.8826 126.5,72.5 Z"/></g>
<g><path style="opacity:1" fill="#373735" d="M 113.5,84.5 C 115.749,85.0798 117.415,86.4131 118.5,88.5C 116.251,87.9202 114.585,86.5869 113.5,84.5 Z"/></g>
<g><path style="opacity:1" fill="#2c3137" d="M 126.5,72.5 C 126.611,71.8826 126.944,71.3826 127.5,71C 123.245,70.2039 119.079,70.3705 115,71.5C 113.514,67.2245 112.181,62.8911 111,58.5C 109.21,62.3268 108.044,66.3268 107.5,70.5C 102.637,70.1805 97.97,70.5139 93.5,71.5C 92.6236,71.6309 91.9569,71.2975 91.5,70.5C 96.456,69.5059 101.456,69.1725 106.5,69.5C 107.081,64.4994 108.581,59.8328 111,55.5C 112.809,59.6806 114.309,64.0139 115.5,68.5C 120.467,69.329 125.467,69.829 130.5,70C 129.529,71.4813 128.196,72.3146 126.5,72.5 Z"/></g>
<g><path style="opacity:1" fill="#f3901d" d="M 24.5,49.5 C 24.5,49.1667 24.5,48.8333 24.5,48.5C 42.8333,48.5 61.1667,48.5 79.5,48.5C 79.8301,66.3412 79.4967,84.0079 78.5,101.5C 78.5,100.833 78.1667,100.5 77.5,100.5C 77.5,83.8333 77.5,67.1667 77.5,50.5C 60.1667,50.5 42.8333,50.5 25.5,50.5C 25.5,49.8333 25.1667,49.5 24.5,49.5 Z"/></g>
<g><path style="opacity:1" fill="#1b3550" d="M 137.5,47.5 C 138.167,47.5 138.5,47.8333 138.5,48.5C 138.167,48.5 137.833,48.5 137.5,48.5C 119.497,48.3334 101.497,48.5001 83.5,49C 82.5079,66.4231 82.1746,83.9231 82.5,101.5C 82.5,101.833 82.5,102.167 82.5,102.5C 81.1692,84.4311 81.1692,66.2644 82.5,48C 100.83,47.5001 119.164,47.3334 137.5,47.5 Z"/></g>
<g><path style="opacity:1" fill="#850716" d="M 316.5,104.5 C 325.39,108.058 332.057,114.058 336.5,122.5C 336.737,123.791 336.404,124.791 335.5,125.5C 333.566,124.89 331.899,123.89 330.5,122.5C 330.158,121.662 329.492,121.328 328.5,121.5C 323.767,119.256 318.767,117.589 313.5,116.5C 311.393,115.532 309.059,115.198 306.5,115.5C 306.167,112.833 305.833,110.167 305.5,107.5C 308.545,107.508 311.545,107.841 314.5,108.5C 314.157,106.517 314.824,105.183 316.5,104.5 Z"/></g>
<g><path style="opacity:1" fill="#37393a" d="M 404.5,162.5 C 400.167,162.5 395.833,162.5 391.5,162.5C 374.035,157.501 366.202,145.835 368,127.5C 374.461,109.345 387.294,102.178 406.5,106C 423.102,111.025 430.269,122.192 428,139.5C 424.883,152.118 417.05,159.785 404.5,162.5 Z M 394.5,118.5 C 405.387,117.725 411.387,122.725 412.5,133.5C 410.099,147.697 402.432,151.864 389.5,146C 382.626,139.172 381.792,131.672 387,123.5C 389.426,121.548 391.926,119.881 394.5,118.5 Z"/></g>
<g><path style="opacity:1" fill="#36383a" d="M 466.5,162.5 C 462.5,162.5 458.5,162.5 454.5,162.5C 432.345,155.182 425.511,140.515 434,118.5C 443.029,106.821 454.862,102.655 469.5,106C 486.527,111.881 493.36,123.715 490,141.5C 486.042,152.964 478.209,159.964 466.5,162.5 Z M 456.5,118.5 C 467.217,117.879 473.55,122.879 475.5,133.5C 473.161,146.492 465.828,150.992 453.5,147C 445.683,140.593 444.183,133.093 449,124.5C 451.114,121.879 453.614,119.879 456.5,118.5 Z"/></g>
<g><path style="opacity:1" fill="#956f1d" d="M 24.5,104.5 C 62.5,104.5 100.5,104.5 138.5,104.5C 138.667,121.17 138.5,137.837 138,154.5C 136.688,157.238 134.522,158.572 131.5,158.5C 132.167,157.833 132.833,157.167 133.5,156.5C 134.512,155.128 135.512,153.795 136.5,152.5C 137.496,137.009 137.83,121.342 137.5,105.5C 100.165,105.333 62.8318,105.5 25.5,106C 24.3433,120.759 24.1767,135.592 25,150.5C 25.1688,135.994 25.6688,121.661 26.5,107.5C 26.3334,122.837 26.5001,138.17 27,153.5C 27.8333,154.333 28.6667,155.167 29.5,156C 63.165,156.5 96.8317,156.667 130.5,156.5C 97.2644,157.173 63.9311,157.84 30.5,158.5C 26.9049,157.901 24.5716,155.901 23.5,152.5C 23.1703,136.325 23.5036,120.325 24.5,104.5 Z"/></g>
<g><path style="opacity:1" fill="#5d471c" d="M 136.5,152.5 C 136.5,137.167 136.5,121.833 136.5,106.5C 99.6629,106.168 62.9962,106.502 26.5,107.5C 25.6688,121.661 25.1688,135.994 25,150.5C 24.1767,135.592 24.3433,120.759 25.5,106C 62.8318,105.5 100.165,105.333 137.5,105.5C 137.83,121.342 137.496,137.009 136.5,152.5 Z"/></g>
<g><path style="opacity:1" fill="#343638" d="M 330.5,105.5 C 339.665,104.442 348.332,105.942 356.5,110C 358.969,112.441 360.802,115.274 362,118.5C 364.739,128.95 361.906,137.45 353.5,144C 357.167,149.667 360.833,155.333 364.5,161C 358.472,161.83 352.472,161.664 346.5,160.5C 344.108,155.8 341.775,151.133 339.5,146.5C 336.038,145.518 332.371,145.185 328.5,145.5C 328.5,150.833 328.5,156.167 328.5,161.5C 323.5,161.5 318.5,161.5 313.5,161.5C 313.5,146.5 313.5,131.5 313.5,116.5C 318.767,117.589 323.767,119.256 328.5,121.5C 328.5,125.833 328.5,130.167 328.5,134.5C 333.363,134.819 338.03,134.486 342.5,133.5C 346.369,132.291 348.369,129.624 348.5,125.5C 346.88,119.408 342.88,116.741 336.5,117.5C 334.519,113.539 332.519,109.539 330.5,105.5 Z M 336.5,117.5 C 342.88,116.741 346.88,119.408 348.5,125.5C 348.369,129.624 346.369,132.291 342.5,133.5C 338.167,133.5 333.833,133.5 329.5,133.5C 329.185,129.629 329.518,125.962 330.5,122.5C 331.899,123.89 333.566,124.89 335.5,125.5C 335.56,126.043 335.893,126.376 336.5,126.5C 337.788,124.701 337.788,123.035 336.5,121.5C 336.5,120.167 336.5,118.833 336.5,117.5 Z"/></g>
<g><path style="opacity:1" fill="#f5b41e" d="M 136.5,152.5 C 135.512,153.795 134.512,155.128 133.5,156.5C 132.5,156.5 131.5,156.5 130.5,156.5C 96.8317,156.667 63.165,156.5 29.5,156C 28.6667,155.167 27.8333,154.333 27,153.5C 26.5001,138.17 26.3334,122.837 26.5,107.5C 62.9962,106.502 99.6629,106.168 136.5,106.5C 136.5,121.833 136.5,137.167 136.5,152.5 Z"/></g>
<g><path style="opacity:1" fill="#393920" d="M 50.5,109.5 C 52.4109,109.574 53.5776,110.574 54,112.5C 55.9695,118.742 58.1362,124.909 60.5,131C 60.3552,131.772 60.0219,132.439 59.5,133C 54.1667,133.667 48.8333,133.667 43.5,133C 43.0426,132.586 42.7093,132.086 42.5,131.5C 45.1831,124.141 47.8498,116.808 50.5,109.5 Z"/></g>
<g><path style="opacity:1" fill="#313520" d="M 85.5,120.5 C 83.9169,117.613 82.4169,114.613 81,111.5C 78.7483,118.077 76.2483,124.577 73.5,131C 75.8333,131.167 78.1667,131.333 80.5,131.5C 83.2695,131.471 85.6028,130.805 87.5,129.5C 88.404,130.209 88.7373,131.209 88.5,132.5C 83.1667,132.5 77.8333,132.5 72.5,132.5C 74.6351,124.762 76.9684,117.096 79.5,109.5C 80.675,109.281 81.675,109.614 82.5,110.5C 84.1211,113.652 85.1211,116.985 85.5,120.5 Z"/></g>
<g><path style="opacity:1" fill="#0c8443" d="M 50.5,111.5 C 51.5862,111.62 52.2528,112.287 52.5,113.5C 54.3122,119.603 56.3122,125.603 58.5,131.5C 53.7863,131.827 49.1196,131.493 44.5,130.5C 47.2628,124.462 49.2628,118.128 50.5,111.5 Z"/></g>
<g><path style="opacity:1" fill="#0c8242" d="M 85.5,120.5 C 86.1667,123.5 86.8333,126.5 87.5,129.5C 85.6028,130.805 83.2695,131.471 80.5,131.5C 78.1667,131.333 75.8333,131.167 73.5,131C 76.2483,124.577 78.7483,118.077 81,111.5C 82.4169,114.613 83.9169,117.613 85.5,120.5 Z"/></g>
<g><path style="opacity:1" fill="#ed9ab9" d="M 643.5,115.5 C 641.167,114.167 638.833,114.167 636.5,115.5C 637.152,114.275 638.319,113.608 640,113.5C 641.681,113.608 642.848,114.275 643.5,115.5 Z"/></g>
<g><path style="opacity:1" fill="#9c022c" d="M 210.5,90.5 C 210.796,93.2625 211.796,95.7625 213.5,98C 208.713,100.736 206.38,104.903 206.5,110.5C 210.561,112.275 214.727,113.942 219,115.5C 221.321,115.091 223.487,114.257 225.5,113C 227.445,109.683 230.111,108.849 233.5,110.5C 234.429,109.311 234.762,107.978 234.5,106.5C 240.22,110.817 246.72,112.817 254,112.5C 264.27,111.412 274.437,109.746 284.5,107.5C 289.793,106.554 295.126,105.887 300.5,105.5C 300.579,104.07 300.246,102.736 299.5,101.5C 301.771,100.637 304.105,100.637 306.5,101.5C 310.116,101.899 313.45,102.899 316.5,104.5C 314.824,105.183 314.157,106.517 314.5,108.5C 311.545,107.841 308.545,107.508 305.5,107.5C 302.592,106.431 299.592,106.264 296.5,107C 283.572,120.642 267.738,128.142 249,129.5C 246.576,129.47 244.243,129.137 242,128.5C 241.167,129.333 240.333,130.167 239.5,131C 242.882,131.016 245.216,132.516 246.5,135.5C 242.155,136.726 237.822,136.726 233.5,135.5C 233.714,133.856 233.38,132.356 232.5,131C 228.679,131.151 225.013,131.317 221.5,131.5C 217.194,128.851 212.527,127.017 207.5,126C 204.333,121.5 200.5,117.667 196,114.5C 195.666,110.801 195.499,107.301 195.5,104C 197.259,95.8022 202.259,91.3022 210.5,90.5 Z"/></g>
<g><path style="opacity:1" fill="#f50070" d="M 279.5,102.5 C 282.702,102.537 284.368,104.203 284.5,107.5C 274.437,109.746 264.27,111.412 254,112.5C 246.72,112.817 240.22,110.817 234.5,106.5C 234.5,105.833 234.833,105.5 235.5,105.5C 250.437,108.571 265.104,107.571 279.5,102.5 Z"/></g>
<g><path style="opacity:1" fill="#d096a0" d="M 504.5,131.5 C 503.511,126.025 503.178,120.358 503.5,114.5C 502.5,114.5 501.5,114.5 500.5,114.5C 500.5,120.5 500.5,126.5 500.5,132.5C 499.51,126.355 499.177,120.022 499.5,113.5C 501.167,113.5 502.833,113.5 504.5,113.5C 504.5,119.5 504.5,125.5 504.5,131.5 Z"/></g>
<g><path style="opacity:1" fill="#8d111d" d="M 504.5,131.5 C 504.842,132.338 505.508,132.672 506.5,132.5C 507.49,126.69 507.823,120.69 507.5,114.5C 508.5,114.5 509.5,114.5 510.5,114.5C 510.5,120.5 510.5,126.5 510.5,132.5C 509.172,136.254 506.506,137.421 502.5,136C 501.177,135.184 500.511,134.017 500.5,132.5C 500.5,126.5 500.5,120.5 500.5,114.5C 501.5,114.5 502.5,114.5 503.5,114.5C 503.178,120.358 503.511,126.025 504.5,131.5 Z"/></g>
<g><path style="opacity:1" fill="#981427" d="M 523.5,114.5 C 524.776,116.562 525.61,118.896 526,121.5C 526.497,119.19 526.663,116.857 526.5,114.5C 527.5,114.5 528.5,114.5 529.5,114.5C 529.5,121.5 529.5,128.5 529.5,135.5C 527.801,135.473 526.467,134.806 525.5,133.5C 524.226,131.007 523.56,128.341 523.5,125.5C 523.688,123.897 523.188,122.563 522,121.5C 521.828,126.202 521.328,130.868 520.5,135.5C 519.503,128.532 519.17,121.532 519.5,114.5C 520.833,114.5 522.167,114.5 523.5,114.5 Z"/></g>
<g><path style="opacity:1" fill="#9a0026" d="M 538.5,114.5 C 539.5,114.5 540.5,114.5 541.5,114.5C 541.5,121.5 541.5,128.5 541.5,135.5C 540.5,135.5 539.5,135.5 538.5,135.5C 538.5,128.5 538.5,121.5 538.5,114.5 Z"/></g>
<g><path style="opacity:1" fill="#b03046" d="M 550.5,113.5 C 560.083,111.584 563.749,115.417 561.5,125C 563.8,134.519 560.134,138.352 550.5,136.5C 550.5,128.833 550.5,121.167 550.5,113.5 Z M 554.5,117.5 C 555.496,117.414 556.329,117.748 557,118.5C 557.667,122.5 557.667,126.5 557,130.5C 556.333,131.167 555.667,131.833 555,132.5C 554.501,127.511 554.334,122.511 554.5,117.5 Z"/></g>
<g><path style="opacity:1" fill="#c43b59" d="M 597.5,117.5 C 597.53,118.497 597.03,119.164 596,119.5C 594.989,118.944 594.156,118.278 593.5,117.5C 591.775,117.843 591.275,118.843 592,120.5C 597.161,124.115 598.828,128.782 597,134.5C 590.165,138.486 586.998,136.486 587.5,128.5C 588.833,128.5 590.167,128.5 591.5,128.5C 591.238,129.978 591.571,131.311 592.5,132.5C 593.614,131.277 593.781,129.944 593,128.5C 587.258,124.672 586.091,119.839 589.5,114C 591.833,113.333 594.167,113.333 596.5,114C 597.337,115.011 597.67,116.178 597.5,117.5 Z"/></g>
<g><path style="opacity:1" fill="#c91c50" d="M 620.5,117.5 C 620.337,119.857 620.503,122.19 621,124.5C 622.883,123.347 623.716,121.681 623.5,119.5C 625.545,120.923 626.545,122.923 626.5,125.5C 625.089,127.539 623.089,128.539 620.5,128.5C 620.5,130.833 620.5,133.167 620.5,135.5C 619.5,135.5 618.5,135.5 617.5,135.5C 617.5,128.5 617.5,121.5 617.5,114.5C 619.604,114.201 621.604,114.534 623.5,115.5C 622.398,116.176 621.398,116.842 620.5,117.5 Z"/></g>
<g><path style="opacity:1" fill="#d74e75" d="M 626.5,125.5 C 626.545,122.923 625.545,120.923 623.5,119.5C 622.778,118.449 621.778,117.782 620.5,117.5C 621.398,116.842 622.398,116.176 623.5,115.5C 621.604,114.534 619.604,114.201 617.5,114.5C 617.5,121.5 617.5,128.5 617.5,135.5C 618.5,135.5 619.5,135.5 620.5,135.5C 619.432,136.434 618.099,136.768 616.5,136.5C 616.5,128.833 616.5,121.167 616.5,113.5C 626.487,112.176 629.82,116.176 626.5,125.5 Z M 620.5,117.5 C 621.778,117.782 622.778,118.449 623.5,119.5C 623.716,121.681 622.883,123.347 621,124.5C 620.503,122.19 620.337,119.857 620.5,117.5 Z"/></g>
<g><path style="opacity:1" fill="#df3970" d="M 653.5,113.5 C 656.518,113.335 659.518,113.502 662.5,114C 663,114.5 663.5,115 664,115.5C 663.582,122.461 663.748,129.461 664.5,136.5C 663.167,136.5 661.833,136.5 660.5,136.5C 660.937,133.193 660.27,130.193 658.5,127.5C 657.516,130.428 657.183,133.428 657.5,136.5C 656.167,136.5 654.833,136.5 653.5,136.5C 653.5,128.833 653.5,121.167 653.5,113.5 Z M 657.5,117.5 C 661.127,119.118 661.294,121.118 658,123.5C 657.505,121.527 657.338,119.527 657.5,117.5 Z"/></g>
<g><path style="opacity:1" fill="#3a361e" d="M 106.5,120.5 C 106.814,117.053 107.648,113.72 109,110.5C 109.718,109.549 110.551,109.383 111.5,110C 114.826,117.31 117.326,124.81 119,132.5C 113.584,133.639 108.084,133.806 102.5,133C 102.292,128.453 103.625,124.287 106.5,120.5 Z"/></g>
<g><path style="opacity:1" fill="#0c8343" d="M 106.5,120.5 C 108.061,117.703 109.394,114.703 110.5,111.5C 113.409,117.98 115.742,124.647 117.5,131.5C 112.833,131.5 108.167,131.5 103.5,131.5C 104.301,127.765 105.301,124.099 106.5,120.5 Z"/></g>
<g><path style="opacity:1" fill="#cf8897" d="M 526.5,114.5 C 527.568,113.566 528.901,113.232 530.5,113.5C 530.5,121.167 530.5,128.833 530.5,136.5C 528.833,136.5 527.167,136.5 525.5,136.5C 525.5,135.5 525.5,134.5 525.5,133.5C 526.467,134.806 527.801,135.473 529.5,135.5C 529.5,128.5 529.5,121.5 529.5,114.5C 528.5,114.5 527.5,114.5 526.5,114.5 Z"/></g>
<g><path style="opacity:1" fill="#ce8696" d="M 538.5,114.5 C 539.568,113.566 540.901,113.232 542.5,113.5C 542.5,121.167 542.5,128.833 542.5,136.5C 540.901,136.768 539.568,136.434 538.5,135.5C 539.5,135.5 540.5,135.5 541.5,135.5C 541.5,128.5 541.5,121.5 541.5,114.5C 540.5,114.5 539.5,114.5 538.5,114.5 Z"/></g>
<g><path style="opacity:1" fill="#c44e61" d="M 571.5,113.5 C 573.527,113.338 575.527,113.505 577.5,114C 578.849,114.772 579.682,115.939 580,117.5C 580.667,122.5 580.667,127.5 580,132.5C 576.829,137.414 573.163,137.747 569,133.5C 568.333,127.833 568.333,122.167 569,116.5C 569.698,115.309 570.531,114.309 571.5,113.5 Z M 573.5,117.5 C 574.809,119.571 575.475,122.071 575.5,125C 575.167,127.5 574.833,130 574.5,132.5C 573.506,127.544 573.173,122.544 573.5,117.5 Z"/></g>
<g><path style="opacity:1" fill="#e2bfc5" d="M 510.5,132.5 C 510.5,126.5 510.5,120.5 510.5,114.5C 509.5,114.5 508.5,114.5 507.5,114.5C 507.823,120.69 507.49,126.69 506.5,132.5C 506.5,126.167 506.5,119.833 506.5,113.5C 508.167,113.5 509.833,113.5 511.5,113.5C 511.823,120.022 511.49,126.355 510.5,132.5 Z"/></g>
<g><path style="opacity:1" fill="#d83b69" d="M 643.5,115.5 C 644.354,121.142 645.02,126.809 645.5,132.5C 645.5,133.5 645.5,134.5 645.5,135.5C 644.5,135.5 643.5,135.5 642.5,135.5C 642.737,134.209 642.404,133.209 641.5,132.5C 639.178,134.412 636.512,135.745 633.5,136.5C 634.593,129.514 635.593,122.514 636.5,115.5C 638.833,114.167 641.167,114.167 643.5,115.5 Z M 639.5,122.5 C 640.793,124.364 640.793,126.364 639.5,128.5C 639.254,126.78 639.254,124.78 639.5,122.5 Z"/></g>
<g><path style="opacity:1" fill="#e59fb6" d="M 593.5,117.5 C 594.156,118.278 594.989,118.944 596,119.5C 597.03,119.164 597.53,118.497 597.5,117.5C 598.404,118.209 598.737,119.209 598.5,120.5C 596.833,120.5 595.167,120.5 593.5,120.5C 593.5,119.5 593.5,118.5 593.5,117.5 Z"/></g>
<g><path style="opacity:1" fill="#ba6472" d="M 523.5,114.5 C 522.167,114.5 520.833,114.5 519.5,114.5C 519.17,121.532 519.503,128.532 520.5,135.5C 521.328,130.868 521.828,126.202 522,121.5C 523.188,122.563 523.688,123.897 523.5,125.5C 522.518,128.962 522.185,132.629 522.5,136.5C 521.167,136.5 519.833,136.5 518.5,136.5C 518.5,128.833 518.5,121.167 518.5,113.5C 520.415,113.216 522.081,113.549 523.5,114.5 Z"/></g>
<g><path style="opacity:1" fill="#e53973" d="M 674.5,113.5 C 676.5,113.5 678.5,113.5 680.5,113.5C 681.967,121.101 682.967,128.767 683.5,136.5C 682.167,136.5 680.833,136.5 679.5,136.5C 679.5,135.167 679.5,133.833 679.5,132.5C 678.167,132.5 676.833,132.5 675.5,132.5C 675.5,133.833 675.5,135.167 675.5,136.5C 674.167,136.5 672.833,136.5 671.5,136.5C 672.174,128.787 673.174,121.121 674.5,113.5 Z M 676.5,124.5 C 677.167,125.167 677.833,125.833 678.5,126.5C 678.631,127.376 678.298,128.043 677.5,128.5C 676.571,127.311 676.238,125.978 676.5,124.5 Z"/></g>
<g><path style="opacity:1" fill="#f1adc6" d="M 678.5,126.5 C 677.833,125.833 677.167,125.167 676.5,124.5C 676.343,123.127 676.51,121.793 677,120.5C 678.319,122.25 678.819,124.25 678.5,126.5 Z"/></g>
<g><path style="opacity:1" fill="#9f2232" d="M 305.5,107.5 C 305.833,110.167 306.167,112.833 306.5,115.5C 309.059,115.198 311.393,115.532 313.5,116.5C 302.664,115.567 292.331,117.401 282.5,122C 271.662,129.585 259.662,134.085 246.5,135.5C 245.216,132.516 242.882,131.016 239.5,131C 240.333,130.167 241.167,129.333 242,128.5C 244.243,129.137 246.576,129.47 249,129.5C 267.738,128.142 283.572,120.642 296.5,107C 299.592,106.264 302.592,106.431 305.5,107.5 Z"/></g>
<g><path style="opacity:1" fill="#e29eb3" d="M 336.5,121.5 C 337.788,123.035 337.788,124.701 336.5,126.5C 335.893,126.376 335.56,126.043 335.5,125.5C 336.404,124.791 336.737,123.791 336.5,122.5C 336.5,122.167 336.5,121.833 336.5,121.5 Z"/></g>
<g><path style="opacity:1" fill="#5b431c" d="M 85.5,120.5 C 88.0129,124.378 89.3462,128.711 89.5,133.5C 83.642,133.822 77.9753,133.489 72.5,132.5C 77.8333,132.5 83.1667,132.5 88.5,132.5C 88.7373,131.209 88.404,130.209 87.5,129.5C 86.8333,126.5 86.1667,123.5 85.5,120.5 Z"/></g>
<g><path style="opacity:1" fill="#b6b5b6" d="M 328.5,121.5 C 329.492,121.328 330.158,121.662 330.5,122.5C 329.518,125.962 329.185,129.629 329.5,133.5C 333.833,133.5 338.167,133.5 342.5,133.5C 338.03,134.486 333.363,134.819 328.5,134.5C 328.5,130.167 328.5,125.833 328.5,121.5 Z"/></g>
<g><path style="opacity:1" fill="#f0aec6" d="M 641.5,132.5 C 642.404,133.209 642.737,134.209 642.5,135.5C 643.5,135.5 644.5,135.5 645.5,135.5C 645.5,134.5 645.5,133.5 645.5,132.5C 646.434,133.568 646.768,134.901 646.5,136.5C 644.833,136.5 643.167,136.5 641.5,136.5C 641.5,135.167 641.5,133.833 641.5,132.5 Z"/></g>
<g><path style="opacity:1" fill="#2e2f1e" d="M 35.5,137.5 C 65.8333,137.5 96.1667,137.5 126.5,137.5C 126.5,140.833 126.5,144.167 126.5,147.5C 121.5,147.5 116.5,147.5 111.5,147.5C 111.5,149.833 111.5,152.167 111.5,154.5C 91.1667,154.5 70.8333,154.5 50.5,154.5C 50.5,152.167 50.5,149.833 50.5,147.5C 45.5,147.5 40.5,147.5 35.5,147.5C 35.5,144.167 35.5,140.833 35.5,137.5 Z"/></g>
<g><path style="opacity:1" fill="#0b5833" d="M 125.5,139.5 C 96.1667,139.5 66.8333,139.5 37.5,139.5C 37.5,141.5 37.5,143.5 37.5,145.5C 36.5318,143.393 36.1984,141.059 36.5,138.5C 66.338,138.169 96.0047,138.502 125.5,139.5 Z"/></g>
<g><path style="opacity:1" fill="#0b8945" d="M 125.5,139.5 C 125.5,141.5 125.5,143.5 125.5,145.5C 120.5,145.5 115.5,145.5 110.5,145.5C 110.5,147.833 110.5,150.167 110.5,152.5C 90.8333,152.5 71.1667,152.5 51.5,152.5C 51.5,150.167 51.5,147.833 51.5,145.5C 46.8333,145.5 42.1667,145.5 37.5,145.5C 37.5,143.5 37.5,141.5 37.5,139.5C 66.8333,139.5 96.1667,139.5 125.5,139.5 Z"/></g>
<g><path style="opacity:1" fill="#bcaf8e" d="M 206.5,141.5 C 207.649,141.791 208.316,142.624 208.5,144C 208.167,144.833 207.833,145.667 207.5,146.5C 206.548,144.955 206.215,143.288 206.5,141.5 Z"/></g>
<g><path style="opacity:1" fill="#b8aa88" d="M 252.5,141.5 C 254.057,142.466 255.39,143.8 256.5,145.5C 255.311,146.429 253.978,146.762 252.5,146.5C 252.5,144.833 252.5,143.167 252.5,141.5 Z"/></g>
<g><path style="opacity:1" fill="#bc4356" d="M 576.5,162.5 C 574.5,162.5 572.5,162.5 570.5,162.5C 568.545,160.654 567.545,158.321 567.5,155.5C 569.981,155.323 571.814,156.323 573,158.5C 573.566,155.021 572.233,152.355 569,150.5C 566.425,142.912 568.925,140.079 576.5,142C 578.155,143.444 578.822,145.278 578.5,147.5C 576.508,147.672 574.842,147.005 573.5,145.5C 573.167,146 572.833,146.5 572.5,147C 574.319,149.489 576.152,151.989 578,154.5C 578.718,157.407 578.218,160.074 576.5,162.5 Z"/></g>
<g><path style="opacity:1" fill="#b7a885" d="M 216.5,141.5 C 217.873,141.343 219.207,141.51 220.5,142C 221.051,143.398 221.384,144.732 221.5,146C 220.065,145.689 218.732,145.855 217.5,146.5C 216.548,144.955 216.215,143.288 216.5,141.5 Z"/></g>
<g><path style="opacity:1" fill="#baac8a" d="M 272.5,142.5 C 273.601,141.402 274.934,141.235 276.5,142C 275.91,143.509 275.244,145.009 274.5,146.5C 273.828,145.051 273.161,143.718 272.5,142.5 Z"/></g>
<g><path style="opacity:1" fill="#b2a27d" d="M 278.5,141.5 C 281.838,141.849 282.838,143.516 281.5,146.5C 280.5,145.167 279.5,145.167 278.5,146.5C 278.167,146 277.833,145.5 277.5,145C 277.989,143.862 278.322,142.695 278.5,141.5 Z"/></g>
<g><path style="opacity:1" fill="#b9ab88" d="M 290.5,141.5 C 292.167,141.5 293.833,141.5 295.5,141.5C 295.5,143.167 295.5,144.833 295.5,146.5C 291.5,147.167 289.833,145.5 290.5,141.5 Z"/></g>
<g><path style="opacity:1" fill="#880c1a" d="M 509.5,144.5 C 508.167,144.5 506.833,144.5 505.5,144.5C 504.833,167.167 504.167,167.167 503.5,144.5C 502.167,144.5 500.833,144.5 499.5,144.5C 499.5,143.5 499.5,142.5 499.5,141.5C 502.833,141.5 506.167,141.5 509.5,141.5C 509.5,142.5 509.5,143.5 509.5,144.5 Z"/></g>
<g><path style="opacity:1" fill="#e2bfc5" d="M 516.5,141.5 C 516.5,148.167 516.5,154.833 516.5,161.5C 517.5,161.5 518.5,161.5 519.5,161.5C 519.187,158.753 519.52,156.086 520.5,153.5C 521.107,153.624 521.44,153.957 521.5,154.5C 520.527,156.948 520.194,159.615 520.5,162.5C 518.833,162.5 517.167,162.5 515.5,162.5C 515.175,155.313 515.509,148.313 516.5,141.5 Z"/></g>
<g><path style="opacity:1" fill="#951a26" d="M 516.5,141.5 C 526.213,140.228 529.213,144.228 525.5,153.5C 525.5,156.167 525.5,158.833 525.5,161.5C 524.5,161.5 523.5,161.5 522.5,161.5C 522.702,159.05 522.369,156.717 521.5,154.5C 521.44,153.957 521.107,153.624 520.5,153.5C 519.52,156.086 519.187,158.753 519.5,161.5C 518.5,161.5 517.5,161.5 516.5,161.5C 516.5,154.833 516.5,148.167 516.5,141.5 Z M 522.5,146.5 C 522.34,148.153 521.674,149.486 520.5,150.5C 520.34,148.801 520.506,147.134 521,145.5C 521.383,146.056 521.883,146.389 522.5,146.5 Z"/></g>
<g><path style="opacity:1" fill="#a93743" d="M 544.5,162.5 C 543.167,162.5 541.833,162.5 540.5,162.5C 539.766,161.292 539.433,159.959 539.5,158.5C 538.5,158.5 537.5,158.5 536.5,158.5C 536.5,159.833 536.5,161.167 536.5,162.5C 535.167,162.5 533.833,162.5 532.5,162.5C 533.221,155.456 534.221,148.456 535.5,141.5C 537.5,141.5 539.5,141.5 541.5,141.5C 542.392,148.519 543.392,155.519 544.5,162.5 Z"/></g>
<g><path style="opacity:1" fill="#d3859a" d="M 560.5,141.5 C 561.491,148.313 561.825,155.313 561.5,162.5C 560.167,162.5 558.833,162.5 557.5,162.5C 557.5,162.167 557.5,161.833 557.5,161.5C 558.5,161.5 559.5,161.5 560.5,161.5C 560.5,154.833 560.5,148.167 560.5,141.5 Z"/></g>
<g><path style="opacity:1" fill="#b20a3b" d="M 585.5,141.5 C 588.167,141.5 590.833,141.5 593.5,141.5C 593.5,142.5 593.5,143.5 593.5,144.5C 591.833,144.5 590.167,144.5 588.5,144.5C 588.205,146.735 588.539,148.735 589.5,150.5C 590.5,150.5 591.5,150.5 592.5,150.5C 592.5,151.5 592.5,152.5 592.5,153.5C 591.167,153.5 589.833,153.5 588.5,153.5C 588.5,156.167 588.5,158.833 588.5,161.5C 587.5,161.5 586.5,161.5 585.5,161.5C 585.5,154.833 585.5,148.167 585.5,141.5 Z"/></g>
<g><path style="opacity:1" fill="#c53b5c" d="M 608.5,162.5 C 606.5,162.5 604.5,162.5 602.5,162.5C 602.217,161.711 601.717,161.044 601,160.5C 600.333,154.5 600.333,148.5 601,142.5C 604.275,140.909 607.275,141.242 610,143.5C 610.667,149.167 610.667,154.833 610,160.5C 609.283,161.044 608.783,161.711 608.5,162.5 Z M 604.5,145.5 C 605.8,147.223 606.467,149.39 606.5,152C 606.167,154.167 605.833,156.333 605.5,158.5C 604.508,154.217 604.174,149.884 604.5,145.5 Z"/></g>
<g><path style="opacity:1" fill="#cf3d67" d="M 627.5,154.5 C 626.045,152.866 624.378,151.532 622.5,150.5C 623.666,148.834 623.666,147.167 622.5,145.5C 621.548,147.045 621.215,148.712 621.5,150.5C 620.067,148.064 620.4,145.731 622.5,143.5C 621.311,142.571 619.978,142.238 618.5,142.5C 618.17,148.868 618.504,155.202 619.5,161.5C 620.48,158.914 620.813,156.247 620.5,153.5C 621.791,153.263 622.791,153.596 623.5,154.5C 621.631,156.635 620.964,159.302 621.5,162.5C 620.167,162.5 618.833,162.5 617.5,162.5C 617.5,155.5 617.5,148.5 617.5,141.5C 620.777,141.216 623.943,141.549 627,142.5C 627.233,146.669 627.4,150.669 627.5,154.5 Z M 622.5,150.5 C 622.167,150.5 621.833,150.5 621.5,150.5C 621.215,148.712 621.548,147.045 622.5,145.5C 623.666,147.167 623.666,148.834 622.5,150.5 Z"/></g>
<g><path style="opacity:1" fill="#ce2057" d="M 648.5,161.5 C 647.5,161.5 646.5,161.5 645.5,161.5C 645.664,158.813 645.497,156.146 645,153.5C 644.56,155.866 644.06,158.199 643.5,160.5C 643.5,161.167 643.5,161.833 643.5,162.5C 642.167,162.5 640.833,162.5 639.5,162.5C 639.5,160.833 639.5,159.167 639.5,157.5C 639.313,155.436 638.813,153.436 638,151.5C 637.824,154.882 637.324,158.215 636.5,161.5C 635.504,155.202 635.17,148.868 635.5,142.5C 637.554,142.365 639.221,143.032 640.5,144.5C 640.838,146.854 641.338,149.187 642,151.5C 642.455,148.146 642.955,144.813 643.5,141.5C 645.167,141.5 646.833,141.5 648.5,141.5C 648.5,148.167 648.5,154.833 648.5,161.5 Z"/></g>
<g><path style="opacity:1" fill="#b8a986" d="M 187.5,141.5 C 189.199,141.34 190.866,141.506 192.5,142C 191.62,143.356 191.286,144.856 191.5,146.5C 187.448,146.68 186.115,145.013 187.5,141.5 Z"/></g>
<g><path style="opacity:1" fill="#bcad8d" d="M 222.5,141.5 C 224.167,141.5 225.833,141.5 227.5,141.5C 227.785,143.288 227.452,144.955 226.5,146.5C 225.5,145.167 224.5,145.167 223.5,146.5C 222.548,144.955 222.215,143.288 222.5,141.5 Z"/></g>
<g><path style="opacity:1" fill="#b6a783" d="M 266.5,141.5 C 267.833,141.5 269.167,141.5 270.5,141.5C 272.239,145.761 270.906,147.094 266.5,145.5C 267.363,144.274 267.363,142.94 266.5,141.5 Z"/></g>
<g><path style="opacity:1" fill="#bbad8c" d="M 200.5,141.5 C 204.676,140.831 206.009,142.331 204.5,146C 203.207,146.49 201.873,146.657 200.5,146.5C 200.5,144.833 200.5,143.167 200.5,141.5 Z"/></g>
<g><path style="opacity:1" fill="#c0b496" d="M 210.5,141.5 C 211.833,141.5 213.167,141.5 214.5,141.5C 214.5,143.167 214.5,144.833 214.5,146.5C 213.167,146.5 211.833,146.5 210.5,146.5C 210.5,144.833 210.5,143.167 210.5,141.5 Z"/></g>
<g><path style="opacity:1" fill="#b7a885" d="M 229.5,141.5 C 231.167,141.5 232.833,141.5 234.5,141.5C 234.5,143.167 234.5,144.833 234.5,146.5C 230.5,147.167 228.833,145.5 229.5,141.5 Z"/></g>
<g><path style="opacity:1" fill="#c6ba9f" d="M 239.5,141.5 C 241.167,141.5 242.833,141.5 244.5,141.5C 244.5,143.167 244.5,144.833 244.5,146.5C 242.833,146.5 241.167,146.5 239.5,146.5C 239.5,144.833 239.5,143.167 239.5,141.5 Z"/></g>
<g><path style="opacity:1" fill="#bdb08f" d="M 246.5,141.5 C 247.833,141.5 249.167,141.5 250.5,141.5C 250.5,143.167 250.5,144.833 250.5,146.5C 249.167,146.5 247.833,146.5 246.5,146.5C 246.5,144.833 246.5,143.167 246.5,141.5 Z"/></g>
<g><path style="opacity:1" fill="#c7ba9f" d="M 260.5,141.5 C 262.199,141.34 263.866,141.506 265.5,142C 264.289,143.113 264.289,144.28 265.5,145.5C 263.955,146.452 262.288,146.785 260.5,146.5C 260.5,144.833 260.5,143.167 260.5,141.5 Z"/></g>
<g><path style="opacity:1" fill="#ecc2d0" d="M 593.5,141.5 C 594.434,142.568 594.768,143.901 594.5,145.5C 592.833,145.5 591.167,145.5 589.5,145.5C 589.5,147.167 589.5,148.833 589.5,150.5C 588.539,148.735 588.205,146.735 588.5,144.5C 590.167,144.5 591.833,144.5 593.5,144.5C 593.5,143.5 593.5,142.5 593.5,141.5 Z"/></g>
<g><path style="opacity:1" fill="#bcaf8e" d="M 193.5,141.5 C 196.045,141.151 198.045,141.984 199.5,144C 195.689,147.711 193.689,146.877 193.5,141.5 Z"/></g>
<g><path style="opacity:1" fill="#bcae8d" d="M 284.5,141.5 C 288.676,140.831 290.009,142.331 288.5,146C 287.207,146.49 285.873,146.657 284.5,146.5C 284.5,144.833 284.5,143.167 284.5,141.5 Z"/></g>
<g><path style="opacity:1" fill="#b15261" d="M 499.5,144.5 C 500.833,144.5 502.167,144.5 503.5,144.5C 504.167,167.167 504.833,167.167 505.5,144.5C 506.833,144.5 508.167,144.5 509.5,144.5C 508.791,145.404 507.791,145.737 506.5,145.5C 506.5,151.167 506.5,156.833 506.5,162.5C 505.167,162.5 503.833,162.5 502.5,162.5C 502.5,156.833 502.5,151.167 502.5,145.5C 501.209,145.737 500.209,145.404 499.5,144.5 Z"/></g>
<g><path style="opacity:1" fill="#deb5bc" d="M 522.5,146.5 C 521.883,146.389 521.383,146.056 521,145.5C 520.506,147.134 520.34,148.801 520.5,150.5C 519.539,148.735 519.205,146.735 519.5,144.5C 521.179,144.285 522.179,144.952 522.5,146.5 Z"/></g>
<g><path style="opacity:1" fill="#da2361" d="M 683.5,161.5 C 682.5,161.5 681.5,161.5 680.5,161.5C 680.795,159.265 680.461,157.265 679.5,155.5C 679.5,155.167 679.5,154.833 679.5,154.5C 678.791,153.596 677.791,153.263 676.5,153.5C 676.5,156.167 676.5,158.833 676.5,161.5C 675.5,161.5 674.5,161.5 673.5,161.5C 673.5,154.833 673.5,148.167 673.5,141.5C 676.572,141.183 679.572,141.516 682.5,142.5C 682.241,148.813 682.575,155.146 683.5,161.5 Z M 677.5,145.5 C 679.972,146.749 680.139,148.415 678,150.5C 677.506,148.866 677.34,147.199 677.5,145.5 Z"/></g>
<g><path style="opacity:1" fill="#929394" d="M 339.5,146.5 C 336.167,146.5 332.833,146.5 329.5,146.5C 329.821,151.695 329.487,156.695 328.5,161.5C 328.5,156.167 328.5,150.833 328.5,145.5C 332.371,145.185 336.038,145.518 339.5,146.5 Z"/></g>
<g><path style="opacity:1" fill="#626465" d="M 240.5,148.5 C 241.8,150.223 242.467,152.39 242.5,155C 242.167,157.167 241.833,159.333 241.5,161.5C 240.508,157.217 240.174,152.884 240.5,148.5 Z"/></g>
<g><path style="opacity:1" fill="#646667" d="M 188.5,149.5 C 195.964,148.89 197.297,151.39 192.5,157C 193.624,157.249 194.624,157.749 195.5,158.5C 187.406,160.592 186.072,158.925 191.5,153.5C 190.302,153.06 189.135,152.727 188,152.5C 187.53,151.423 187.697,150.423 188.5,149.5 Z"/></g>
<g><path style="opacity:1" fill="#6b6c6e" d="M 202.5,149.5 C 204.467,149.261 206.301,149.594 208,150.5C 208.667,153.167 208.667,155.833 208,158.5C 205.237,161.288 202.903,160.955 201,157.5C 200.109,154.502 200.609,151.836 202.5,149.5 Z M 203.5,152.5 C 206.69,153.667 207.023,155.334 204.5,157.5C 203.548,155.955 203.215,154.288 203.5,152.5 Z"/></g>
<g><path style="opacity:1" fill="#646667" d="M 214.5,149.5 C 221.964,148.89 223.297,151.39 218.5,157C 219.624,157.249 220.624,157.749 221.5,158.5C 213.406,160.592 212.072,158.925 217.5,153.5C 216.302,153.06 215.135,152.727 214,152.5C 213.53,151.423 213.697,150.423 214.5,149.5 Z"/></g>
<g><path style="opacity:1" fill="#656768" d="M 227.5,149.5 C 234.964,148.89 236.297,151.39 231.5,157C 232.624,157.249 233.624,157.749 234.5,158.5C 226.406,160.592 225.072,158.925 230.5,153.5C 229.302,153.06 228.135,152.727 227,152.5C 226.53,151.423 226.697,150.423 227.5,149.5 Z"/></g>
<g><path style="opacity:1" fill="#606263" d="M 287.5,149.5 C 290.167,149.5 292.833,149.5 295.5,149.5C 294.94,153.627 293.107,156.961 290,159.5C 289.5,159.333 289,159.167 288.5,159C 289.627,157.247 290.627,155.413 291.5,153.5C 290.609,152.41 289.609,152.41 288.5,153.5C 287.571,152.311 287.238,150.978 287.5,149.5 Z"/></g>
<g><path style="opacity:1" fill="#a71f37" d="M 556.5,147.5 C 556.709,148.922 557.209,150.255 558,151.5C 558.498,148.183 558.665,144.85 558.5,141.5C 559.167,141.5 559.833,141.5 560.5,141.5C 560.5,148.167 560.5,154.833 560.5,161.5C 559.5,161.5 558.5,161.5 557.5,161.5C 556.232,159.095 555.565,156.428 555.5,153.5C 555.291,152.078 554.791,150.745 554,149.5C 553.501,153.486 553.334,157.486 553.5,161.5C 552.5,161.5 551.5,161.5 550.5,161.5C 550.5,154.833 550.5,148.167 550.5,141.5C 555.161,140.832 557.161,142.832 556.5,147.5 Z"/></g>
<g><path style="opacity:1" fill="#d18297" d="M 558.5,141.5 C 558.665,144.85 558.498,148.183 558,151.5C 557.209,150.255 556.709,148.922 556.5,147.5C 557.167,145.5 557.833,143.5 558.5,141.5 Z"/></g>
<g><path style="opacity:1" fill="#67696a" d="M 262.5,149.5 C 268.178,149.157 270.344,151.824 269,157.5C 267.097,160.955 264.763,161.288 262,158.5C 261.264,155.408 261.431,152.408 262.5,149.5 Z M 264.5,152.5 C 266.972,153.749 267.139,155.415 265,157.5C 263.481,155.861 263.314,154.194 264.5,152.5 Z"/></g>
<g><path style="opacity:1" fill="#bf0145" d="M 621.5,150.5 C 621.833,150.5 622.167,150.5 622.5,150.5C 624.378,151.532 626.045,152.866 627.5,154.5C 627.5,156.5 627.5,158.5 627.5,160.5C 626.791,161.404 625.791,161.737 624.5,161.5C 624.802,158.941 624.468,156.607 623.5,154.5C 622.791,153.596 621.791,153.263 620.5,153.5C 620.813,156.247 620.48,158.914 619.5,161.5C 618.504,155.202 618.17,148.868 618.5,142.5C 619.978,142.238 621.311,142.571 622.5,143.5C 620.4,145.731 620.067,148.064 621.5,150.5 Z"/></g>
<g><path style="opacity:1" fill="#e785aa" d="M 640.5,144.5 C 639.221,143.032 637.554,142.365 635.5,142.5C 635.17,148.868 635.504,155.202 636.5,161.5C 637.324,158.215 637.824,154.882 638,151.5C 638.813,153.436 639.313,155.436 639.5,157.5C 638.549,158.919 638.216,160.585 638.5,162.5C 637.167,162.5 635.833,162.5 634.5,162.5C 634.5,155.5 634.5,148.5 634.5,141.5C 636.5,141.5 638.5,141.5 640.5,141.5C 640.5,142.5 640.5,143.5 640.5,144.5 Z"/></g>
<g><path style="opacity:1" fill="#d18498" d="M 555.5,153.5 C 554.523,156.287 554.19,159.287 554.5,162.5C 553.167,162.5 551.833,162.5 550.5,162.5C 550.5,162.167 550.5,161.833 550.5,161.5C 551.5,161.5 552.5,161.5 553.5,161.5C 553.334,157.486 553.501,153.486 554,149.5C 554.791,150.745 555.291,152.078 555.5,153.5 Z"/></g>
<g><path style="opacity:1" fill="#d0cfd0" d="M 21.5,153.5 C 22.6737,154.514 23.3404,155.847 23.5,157.5C 21.8958,156.713 21.2291,155.38 21.5,153.5 Z"/></g>
<g><path style="opacity:1" fill="#ca8894" d="M 525.5,153.5 C 526.477,156.287 526.81,159.287 526.5,162.5C 525.167,162.5 523.833,162.5 522.5,162.5C 522.5,162.167 522.5,161.833 522.5,161.5C 523.5,161.5 524.5,161.5 525.5,161.5C 525.5,158.833 525.5,156.167 525.5,153.5 Z"/></g>
<g><path style="opacity:1" fill="#d799a6" d="M 537.5,151.5 C 538.423,154.806 538.423,154.472 537.5,150.5C 537.413,147.402 537.913,147.068 539,149.5C 539.495,151.473 539.662,153.473 539.5,155.5C 538.5,155.5 537.5,155.5 536.5,155.5C 536.232,153.901 536.566,152.568 537.5,151.5 Z"/></g>
<g><path style="opacity:1" fill="#e9bbc9" d="M 585.5,141.5 C 585.5,148.167 585.5,154.833 585.5,161.5C 586.5,161.5 587.5,161.5 588.5,161.5C 588.5,158.833 588.5,156.167 588.5,153.5C 589.833,153.5 591.167,153.5 592.5,153.5C 592.5,152.5 592.5,151.5 592.5,150.5C 593.434,151.568 593.768,152.901 593.5,154.5C 592.167,154.5 590.833,154.5 589.5,154.5C 589.5,157.167 589.5,159.833 589.5,162.5C 587.833,162.5 586.167,162.5 584.5,162.5C 584.175,155.313 584.509,148.313 585.5,141.5 Z"/></g>
<g><path style="opacity:1" fill="#da3d6b" d="M 667.5,162.5 C 665.833,162.5 664.167,162.5 662.5,162.5C 662.5,161.167 662.5,159.833 662.5,158.5C 661.5,158.5 660.5,158.5 659.5,158.5C 659.567,159.959 659.234,161.292 658.5,162.5C 657.5,162.5 656.5,162.5 655.5,162.5C 655.911,155.788 656.744,149.121 658,142.5C 660,141.167 662,141.167 664,142.5C 665.066,149.231 666.233,155.898 667.5,162.5 Z"/></g>
<g><path style="opacity:1" fill="#ed9fbc" d="M 660.5,150.5 C 660.16,152.548 660.493,153.548 661.5,153.5C 662.043,153.56 662.376,153.893 662.5,154.5C 661.675,155.386 660.675,155.719 659.5,155.5C 659.216,153.585 659.549,151.919 660.5,150.5 Z"/></g>
<g><path style="opacity:1" fill="#e881a8" d="M 679.5,154.5 C 677.631,156.635 676.964,159.302 677.5,162.5C 676.167,162.5 674.833,162.5 673.5,162.5C 673.5,162.167 673.5,161.833 673.5,161.5C 674.5,161.5 675.5,161.5 676.5,161.5C 676.5,158.833 676.5,156.167 676.5,153.5C 677.791,153.263 678.791,153.596 679.5,154.5 Z"/></g>
<g><path style="opacity:1" fill="#eeb5c9" d="M 623.5,154.5 C 624.468,156.607 624.802,158.941 624.5,161.5C 625.791,161.737 626.791,161.404 627.5,160.5C 628.338,160.842 628.672,161.508 628.5,162.5C 626.833,162.5 625.167,162.5 623.5,162.5C 623.5,159.833 623.5,157.167 623.5,154.5 Z"/></g>
<g><path style="opacity:1" fill="#6b511d" d="M 130.5,156.5 C 131.5,156.5 132.5,156.5 133.5,156.5C 132.833,157.167 132.167,157.833 131.5,158.5C 97.8333,159.833 64.1667,159.833 30.5,158.5C 63.9311,157.84 97.2644,157.173 130.5,156.5 Z"/></g>
<g><path style="opacity:1" fill="#d1d1d0" d="M 140.5,154.5 C 140.288,157.712 138.621,159.712 135.5,160.5C 137.196,158.475 138.863,156.475 140.5,154.5 Z"/></g>
<g><path style="opacity:1" fill="#646567" d="M 249.5,149.5 C 256.155,149.597 257.155,152.097 252.5,157C 253.938,157.219 255.271,157.719 256.5,158.5C 253.914,159.48 251.247,159.813 248.5,159.5C 248.744,156.737 250.077,154.571 252.5,153C 251.049,153.263 249.716,153.096 248.5,152.5C 248.291,151.914 247.957,151.414 247.5,151C 248.416,150.722 249.082,150.222 249.5,149.5 Z"/></g>
<g><path style="opacity:1" fill="#646567" d="M 275.5,149.5 C 282.155,149.597 283.155,152.097 278.5,157C 279.938,157.219 281.271,157.719 282.5,158.5C 279.914,159.48 277.247,159.813 274.5,159.5C 274.744,156.737 276.077,154.571 278.5,153C 277.049,153.263 275.716,153.096 274.5,152.5C 274.291,151.914 273.957,151.414 273.5,151C 274.416,150.722 275.082,150.222 275.5,149.5 Z"/></g>
<g><path style="opacity:1" fill="#f1bbcf" d="M 648.5,161.5 C 648.5,161.833 648.5,162.167 648.5,162.5C 647.167,162.5 645.833,162.5 644.5,162.5C 644.672,161.508 644.338,160.842 643.5,160.5C 644.06,158.199 644.56,155.866 645,153.5C 645.497,156.146 645.664,158.813 645.5,161.5C 646.5,161.5 647.5,161.5 648.5,161.5 Z"/></g>
<g><path style="opacity:1" fill="#dfdfe0" d="M 25.5,159.5 C 27.153,159.66 28.4863,160.326 29.5,161.5C 27.6203,161.771 26.287,161.104 25.5,159.5 Z"/></g>
<g><path style="opacity:1" fill="#eb8fb2" d="M 679.5,155.5 C 680.461,157.265 680.795,159.265 680.5,161.5C 681.5,161.5 682.5,161.5 683.5,161.5C 683.5,161.833 683.5,162.167 683.5,162.5C 682.167,162.5 680.833,162.5 679.5,162.5C 679.5,160.167 679.5,157.833 679.5,155.5 Z"/></g>
</svg>
